<svg width="23" height="22" viewBox="0 0 23 22" xmlns="http://www.w3.org/2000/svg"><title>icon-github-inverse</title><path d="M2.89 17.74c1.34 1.862 3.1 3.15 5.235 3.847.248.05.422.024.546-.1.124-.1.174-.247.174-.397V19.105l-.323.05c-.197.05-.445.05-.767.05-.298 0-.62-.025-.968-.1-.323-.05-.644-.198-.917-.42-.3-.2-.497-.497-.62-.845l-.125-.322c-.1-.2-.248-.446-.447-.695-.198-.273-.397-.447-.595-.52l-.098-.075c-.074-.05-.124-.1-.174-.174-.05-.05-.1-.124-.124-.198-.025-.05 0-.1.075-.15.048-.05.197-.073.396-.073l.273.05c.172.05.42.147.668.322.273.198.497.447.694.718.2.398.447.67.77.87.298.198.595.297.893.297.298 0 .57-.025.794-.05.222-.05.42-.124.62-.223.074-.62.297-1.09.67-1.414-.522-.074-.993-.15-1.415-.248-.422-.125-.844-.298-1.29-.546-.447-.25-.82-.57-1.117-.92-.297-.37-.546-.867-.743-1.463-.174-.595-.273-1.29-.273-2.083 0-1.116.372-2.06 1.09-2.854-.347-.843-.297-1.786.1-2.827.273-.075.67 0 1.19.198.522.2.92.373 1.167.52.222.15.42.274.57.4.867-.25 1.76-.373 2.68-.373.892 0 1.785.124 2.654.372l.52-.35c.347-.222.794-.42 1.266-.593.496-.2.867-.25 1.116-.174.42 1.04.47 1.984.124 2.827.72.795 1.092 1.738 1.092 2.854 0 .794-.1 1.488-.273 2.083-.2.62-.448 1.092-.746 1.464-.297.35-.67.67-1.116.92-.447.247-.893.42-1.314.545-.423.1-.894.174-1.415.248.47.397.718 1.066.718 1.96v2.927c0 .15.05.298.174.397.125.124.298.15.546.1 2.133-.696 3.895-1.985 5.234-3.846 1.365-1.834 2.035-3.92 2.035-6.226 0-1.935-.472-3.72-1.415-5.358-.967-1.613-2.257-2.903-3.87-3.87C15.196 1.342 13.41.87 11.5.87c-1.936 0-3.723.47-5.36 1.413-1.612.968-2.902 2.258-3.87 3.87C1.327 7.794.856 9.58.856 11.516c0 2.306.67 4.39 2.034 6.226" fill="#FFF" fill-rule="evenodd"/></svg>