<svg width="23" height="22" viewBox="0 0 23 22" xmlns="http://www.w3.org/2000/svg"><title>icon-linkedin</title><path d="M1.55 4.972c.447.446 1.068.67 1.812.67h.025c.794 0 1.414-.224 1.885-.67.472-.472.695-1.018.695-1.712 0-.67-.25-1.24-.695-1.687-.447-.446-1.067-.67-1.836-.67-.77 0-1.39.224-1.86.67-.472.447-.72 1.017-.72 1.687 0 .694.224 1.24.694 1.712zm-.42 16.25h4.564V7.526H1.13V21.22zm11.634 0V13.58c0-.47.05-.844.15-1.117.197-.47.496-.867.893-1.19.37-.323.867-.472 1.463-.472.794 0 1.364.274 1.736.82.373.546.57 1.315.57 2.282v7.32h4.565v-7.84c0-2.035-.47-3.572-1.436-4.615-.97-1.042-2.234-1.562-3.82-1.562-.572 0-1.118.074-1.59.223-.47.124-.867.323-1.214.594-.323.25-.572.497-.77.72-.2.223-.396.472-.57.77h.024V7.526H8.2l.024.67v4.093c0 2.282 0 5.26-.024 8.93h4.564z" fill="#000" fill-rule="evenodd"/></svg>