<svg width="23" height="22" viewBox="0 0 23 22" xmlns="http://www.w3.org/2000/svg"><title>icon-facebook</title><path d="M2.077 19.91c.82.76 1.77 1.153 2.926 1.153h7.78v-8.317h-3.21V9.68h3.21V7.398c0-1.3.383-2.33 1.18-3.066.77-.737 1.822-1.104 3.105-1.104.82 0 1.67.048 2.593.123v2.822l-1.9.025c-.64 0-1.103.122-1.36.392-.28.27-.41.636-.41 1.127V9.68h3.337l-.436 3.066h-2.9v8.317h2.747c1.13 0 2.105-.393 2.926-1.153.796-.76 1.207-1.693 1.207-2.797V3.988c0-1.08-.41-2.01-1.207-2.772-.82-.76-1.77-1.153-2.926-1.153H5.003c-1.155 0-2.105.392-2.926 1.153C1.28 1.976.87 2.91.87 3.988v13.125c0 1.104.41 2.036 1.207 2.797" fill="#000" fill-rule="evenodd"/></svg>