<svg width="29" height="30" viewBox="0 0 29 30" xmlns="http://www.w3.org/2000/svg"><title>icon-linkedin</title><path d="M2.118 27.58c1.058 1.025 2.283 1.555 3.77 1.555h17.697c1.49 0 2.713-.53 3.77-1.555 1.027-1.025 1.556-2.282 1.556-3.77V6.11c0-1.455-.528-2.712-1.554-3.737C26.298 1.35 25.074.82 23.586.82H5.888c-1.49 0-2.714.53-3.772 1.555C1.092 3.4.563 4.657.563 6.112V23.81c0 1.488.53 2.745 1.555 3.77zM5.326 6.212c.463-.43 1.058-.63 1.754-.63.728 0 1.29.2 1.72.63.43.43.662.96.662 1.587 0 .628-.2 1.157-.662 1.588-.43.43-1.026.628-1.754.628s-1.29-.2-1.72-.628c-.43-.43-.66-.96-.66-1.59 0-.627.23-1.156.66-1.586zm-.396 5.523h4.266v12.768H4.93V11.735zm6.615 0h4.267v1.853h-.033c.892-1.422 2.182-2.15 3.837-2.15 1.488 0 2.68.496 3.572 1.456.892.96 1.355 2.38 1.355 4.3v7.31h-4.267v-6.847c0-1.92-.728-2.878-2.15-2.878-.53 0-.993.164-1.357.46-.363.3-.66.663-.826 1.093-.098.2-.132.563-.132 1.026v7.143h-4.267c.033-7.707.033-11.973 0-12.768z" fill="#0A0B09" fill-rule="evenodd"/></svg>