<svg width="36" height="29" viewBox="0 0 36 29" xmlns="http://www.w3.org/2000/svg"><path d="M14.143 2.857c6.268 0 11.57 3.536 11.57 7.714 0 4.18-5.302 7.716-11.57 7.716-1.045 0-2.07-.1-3.074-.282l-1.066-.2-.883.622c-.4.282-.823.543-1.245.784l.703-1.688-1.95-1.125C4.06 14.91 2.572 12.78 2.572 10.57c0-4.177 5.305-7.713 11.573-7.713zm0-2.57C6.328.286 0 4.886 0 10.57c0 3.256 2.09 6.17 5.344 8.057-.683 1.668-1.567 2.45-2.35 3.335-.222.26-.483.502-.402.884.06.34.34.583.642.583h.06c.603-.082 1.186-.182 1.728-.323 2.03-.522 3.918-1.386 5.585-2.57 1.125.2 2.31.32 3.536.32 7.815 0 14.143-4.6 14.143-10.286 0-5.684-6.328-10.284-14.143-10.284zM30.656 23.77C33.91 21.882 36 18.99 36 15.714c0-3.355-2.21-6.328-5.605-8.196.3.984.462 2.01.462 3.053 0 3.597-1.848 6.912-5.203 9.363-3.114 2.25-7.192 3.496-11.51 3.496-.584 0-1.186-.042-1.77-.082C14.887 24.996 18.222 26 21.858 26c1.226 0 2.41-.12 3.536-.32 1.667 1.184 3.556 2.048 5.585 2.57.542.14 1.125.24 1.727.32.322.042.623-.22.704-.58.08-.383-.182-.624-.403-.885-.784-.884-1.668-1.668-2.35-3.335z" fill="#000" fill-rule="evenodd"/></svg>