<svg width="34" height="28" viewBox="0 0 34 28" xmlns="http://www.w3.org/2000/svg"><path d="M10.808 27.708c2.42 0 4.688-.377 6.844-1.134 2.117-.795 3.93-1.815 5.444-3.1 1.473-1.286 2.797-2.76 3.894-4.424 1.058-1.7 1.89-3.44 2.42-5.255.53-1.814.794-3.63.794-5.483v-.87c1.322-.98 2.457-2.153 3.402-3.514-1.324.53-2.61.906-3.933 1.02 1.476-.87 2.496-2.117 2.988-3.742-1.323.793-2.76 1.36-4.31 1.662C26.99 1.432 25.327.714 23.36.714c-1.853 0-3.478.642-4.802 1.966-1.322 1.36-2.003 2.95-2.003 4.84 0 .49.076 1.02.19 1.55-2.8-.114-5.408-.833-7.865-2.08-2.42-1.285-4.5-2.95-6.2-5.028-.605 1.058-.946 2.192-.946 3.44 0 1.133.304 2.23.832 3.25.568.984 1.286 1.778 2.23 2.42-1.096-.038-2.117-.34-3.1-.868v.076c0 1.662.53 3.1 1.55 4.347 1.06 1.248 2.344 2.003 3.932 2.343-.604.152-1.21.227-1.814.227-.38 0-.795-.037-1.285-.112.452 1.36 1.245 2.494 2.418 3.365 1.172.906 2.496 1.36 3.97 1.36-2.495 1.967-5.292 2.912-8.47 2.912-.604 0-1.133 0-1.625-.076 3.138 2.04 6.654 3.062 10.435 3.062" fill="#0A0B09" fill-rule="evenodd"/></svg>