<svg width="30" height="29" viewBox="0 0 30 29" xmlns="http://www.w3.org/2000/svg"><title>icon-github</title><path d="M3.303 23.66c1.837 2.55 4.253 4.32 7.18 5.273.34.068.578.033.748-.136.17-.137.24-.34.24-.544V25.53l-.444.068c-.27.07-.612.07-1.054.07-.41 0-.85-.035-1.327-.138-.443-.068-.884-.27-1.258-.577-.41-.273-.68-.68-.85-1.158l-.172-.442c-.135-.272-.34-.612-.612-.953-.272-.374-.545-.612-.816-.714l-.136-.1c-.1-.07-.17-.138-.237-.24-.07-.068-.137-.17-.172-.272-.032-.068 0-.137.104-.205.07-.07.272-.102.545-.102l.373.068c.238.068.577.203.92.442.373.272.68.613.95.986.273.545.613.918 1.055 1.19.41.274.817.41 1.225.41.41 0 .782-.035 1.09-.07.305-.066.578-.17.85-.306.102-.85.408-1.496.92-1.938-.716-.102-1.362-.205-1.94-.34-.58-.17-1.158-.41-1.77-.75-.613-.34-1.123-.78-1.53-1.258-.41-.51-.75-1.19-1.02-2.007-.24-.817-.376-1.77-.376-2.857 0-1.53.51-2.824 1.496-3.914-.475-1.157-.407-2.45.137-3.878.374-.103.918 0 1.634.272.714.273 1.258.51 1.6.714.304.204.577.374.78.545 1.19-.34 2.416-.51 3.675-.51 1.224 0 2.45.17 3.64.51l.714-.477c.476-.306 1.09-.578 1.736-.816.68-.272 1.19-.34 1.53-.238.578 1.428.647 2.72.17 3.878.987 1.09 1.498 2.383 1.498 3.914 0 1.088-.136 2.04-.374 2.857-.273.85-.613 1.497-1.022 2.007-.408.477-.918.918-1.53 1.26-.613.34-1.226.577-1.803.748-.58.135-1.226.238-1.94.34.646.544.986 1.462.986 2.687v4.016c0 .204.068.407.238.544.17.17.41.204.748.136 2.926-.953 5.342-2.722 7.18-5.273 1.87-2.518 2.79-5.377 2.79-8.54 0-2.654-.648-5.104-1.94-7.35-1.327-2.21-3.096-3.98-5.307-5.307C20.178 1.17 17.73.523 15.11.523c-2.655 0-5.104.647-7.35 1.94C5.55 3.79 3.78 5.56 2.454 7.77 1.16 10.017.513 12.467.513 15.12c0 3.163.92 6.022 2.79 8.54" fill="#000" fill-rule="evenodd"/></svg>