<svg width="29" height="29" viewBox="0 0 29 29" xmlns="http://www.w3.org/2000/svg"><path d="M1.802 27.015c.703.672 1.534 1.023 2.492 1.023h20.344c.957 0 1.788-.35 2.49-1.023.67-.7 1.023-1.532 1.023-2.49V4.18c0-.958-.35-1.788-1.02-2.49-.704-.67-1.535-1.022-2.492-1.022H4.294c-.958 0-1.79.35-2.492 1.022-.67.702-1.02 1.532-1.02 2.49v20.345c0 .958.35 1.79 1.02 2.49zM3.814 12.26h2.523c-.224.736-.35 1.534-.35 2.332 0 2.268.83 4.216 2.49 5.845 1.662 1.597 3.674 2.395 6.004 2.395 1.566 0 2.972-.383 4.28-1.118 1.31-.735 2.332-1.725 3.1-2.97.766-1.278 1.15-2.65 1.15-4.152 0-.798-.13-1.596-.353-2.332h2.396v11.53c0 .32-.097.574-.32.766-.223.224-.478.32-.765.32H4.9c-.32 0-.575-.096-.766-.32-.223-.192-.32-.446-.32-.767V12.26zM14.48 8.972c1.535 0 2.844.51 3.9 1.563 1.084 1.055 1.626 2.3 1.626 3.77 0 1.468-.542 2.746-1.627 3.77-1.056 1.052-2.365 1.563-3.9 1.563-1.5 0-2.81-.51-3.863-1.564-1.086-1.023-1.63-2.3-1.63-3.77 0-1.47.544-2.714 1.63-3.77 1.054-1.05 2.363-1.562 3.864-1.562zm5.016-4.026c0-.35.128-.637.35-.893.257-.223.545-.352.895-.352h3.1c.318 0 .606.13.862.353.223.256.35.542.35.893v2.94c0 .35-.127.638-.35.894-.256.223-.544.35-.862.35h-3.1c-.35 0-.637-.127-.893-.35-.223-.256-.35-.544-.35-.895v-2.94z" fill="#0A0B09" fill-rule="evenodd"/></svg>