<svg width="21" height="23" viewBox="0 0 21 23" xmlns="http://www.w3.org/2000/svg"><path d="M1.23 22.607c.224.246.515.36.852.36h16.812c.337 0 .628-.114.853-.36.247-.225.36-.517.36-.853V7.344c0-.337-.09-.72-.248-1.123-.18-.38-.383-.717-.607-.942l-3.905-3.905c-.225-.225-.562-.427-.943-.606C14 .61 13.62.52 13.282.52h-11.2c-.337 0-.628.112-.853.36-.248.224-.36.515-.36.852v20.022c0 .336.112.628.36.853zM2.463 2.114h9.63V7.32c0 .338.11.63.358.854.224.247.516.36.853.36h5.207V21.37H2.464V2.114zm1.683 17.35c.045.023.067.045.09.045l.292.156c.11.068.223.09.358.09.74 0 1.75-1.1 3.03-3.277 1.414-.495 3.053-.854 4.916-1.056.516.292 1.054.494 1.616.673.56.157 1.055.247 1.46.247.537 0 .83-.157.874-.494.022 0 .022-.022.022-.022l.023-.022c.11-.247.11-.472-.024-.65-.247-.405-.987-.607-2.222-.607-.494 0-.987.02-1.48.088-.405-.247-.764-.493-1.034-.695-.763-.63-1.37-1.617-1.84-2.986.112-.583.157-1.39.18-2.4v-.383c0-.045 0-.067-.023-.112.022 0 .045-.045.067-.09.068-.382.023-.673-.112-.853-.112-.113-.247-.18-.45-.18h-.268c-.27 0-.45.157-.54.493-.11.427-.134.965-.066 1.594.045.65.18 1.324.38 1.998-.313 1.055-.74 2.154-1.3 3.277-.472.942-.92 1.75-1.347 2.47 0-.024 0-.024-.022-.046-.09-.135-.18-.157-.29-.09-.72.382-1.258.786-1.663 1.212-.38.45-.628.83-.695 1.145-.023.224 0 .38.067.47zM5.47 18.14c.293-.36.675-.718 1.1-1.033-.717 1.1-1.3 1.774-1.727 1.976.112-.247.314-.562.628-.943zm3.368-3.345c.472-.92.808-1.75 1.033-2.47.427.922.966 1.64 1.617 2.2.022.046.09.113.202.18.09.068.134.113.156.113-1.257.224-2.447.56-3.57 1.01.136-.225.315-.584.562-1.033zm.988-7.227v-.023l.022-.022c.09.112.157.247.157.427v.022l.023.022v.023c-.023.045-.045.067-.045.112-.067.336-.09.515-.09.538-.045.292-.09.494-.09.538-.112-.74-.09-1.3.023-1.638zm3.86-5.365c.247.09.404.18.517.292l3.928 3.928c.113.112.203.27.293.516h-4.737V2.202zm2.694 14.423l.022.022c-.045.023-.112.023-.224.023-.404 0-.92-.11-1.57-.336.986 0 1.57.09 1.772.292z" fill="#000" fill-rule="evenodd"/></svg>