<svg width="151" height="26" viewBox="0 0 151 26" xmlns="http://www.w3.org/2000/svg"><path d="M15.344 14.453c.333.167.52.406.562.72.042.31-.094.78-.406 1.405-.156.313-.305.56-.445.742-.14.183-.28.31-.414.383-.135.073-.273.102-.413.086-.14-.017-.29-.066-.446-.15L1.595 11.36c-.25-.126-.433-.29-.547-.493-.115-.203-.172-.528-.172-.976 0-.447.057-.773.172-.976.114-.203.297-.367.547-.492l12.187-6.28c.158-.085.306-.134.447-.15.14-.015.278.013.414.086.136.073.274.2.415.383.14.183.29.43.445.743.313.625.448 1.094.406 1.406-.04.312-.23.55-.562.718L6.204 9.89l9.14 4.563zm9.312 3.906c0 .354-.15.606-.453.757-.302.15-.786.227-1.453.227s-1.14-.076-1.422-.227c-.28-.15-.422-.403-.422-.758v-3.485c0-.354.123-.607.367-.758.245-.15.623-.226 1.133-.226.344 0 .617.037.82.11.204.073.363.182.477.328.563.698 1.255 1.188 2.078 1.47.824.28 1.69.42 2.595.42.875 0 1.51-.11 1.906-.335.397-.224.595-.544.595-.96 0-.272-.125-.486-.375-.642-.25-.155-.59-.28-1.016-.374-.427-.094-.916-.172-1.468-.234-.552-.063-1.125-.14-1.72-.235-.593-.093-1.18-.216-1.765-.367-.582-.15-1.124-.362-1.624-.633-.625-.343-1.14-.812-1.547-1.406-.407-.592-.61-1.374-.61-2.342 0-.698.143-1.323.43-1.876.286-.552.682-1.02 1.187-1.406.505-.385 1.104-.68 1.797-.883.693-.203 1.44-.304 2.242-.304.844 0 1.607.098 2.29.296.682.198 1.314.48 1.898.843v-.157c0-.354.125-.607.375-.758.25-.15.707-.226 1.374-.226.666 0 1.14.074 1.422.225.28.15.422.404.422.758V8.5c0 .354-.112.607-.336.758-.224.15-.592.226-1.102.226-.552 0-.932-.11-1.14-.328-.646-.677-1.37-1.148-2.172-1.414-.803-.265-1.698-.398-2.688-.398-.635 0-1.122.112-1.46.336-.34.224-.51.513-.51.867 0 .24.105.435.314.586.208.15.49.268.843.35.386.095.834.168 1.344.22.512.052 1.05.112 1.618.18.568.068 1.14.16 1.72.273.577.115 1.122.276 1.632.485.375.157.727.347 1.055.57.328.225.61.493.843.806.235.312.42.674.555 1.086.136.41.203.882.203 1.414 0 .74-.135 1.406-.406 2-.27.593-.672 1.1-1.203 1.523-.53.42-1.182.744-1.953.968-.77.224-1.656.336-2.657.336-.812 0-1.546-.102-2.203-.305-.656-.204-1.265-.472-1.828-.806v.125zm15.22-9.5c-.178 0-.33-.027-.454-.08-.125-.05-.227-.14-.305-.264-.078-.125-.135-.295-.172-.508-.036-.214-.054-.487-.054-.82 0-.334.02-.61.055-.83.037-.217.094-.39.172-.514.078-.125.18-.214.305-.266.125-.052.276-.078.453-.078h3.016V1.094c0-.354.157-.607.47-.758.312-.15.843-.227 1.593-.227.375 0 .68.018.914.054.235.037.422.094.563.172.14.078.237.18.29.305.05.126.077.277.077.454V5.5h5.797c.177 0 .328.026.453.078.125.052.226.14.305.266.078.125.135.297.17.515.038.218.056.494.056.827 0 .334-.018.607-.055.82-.036.214-.093.384-.17.51-.08.124-.18.212-.306.264-.125.053-.276.08-.453.08h-5.797v4.343c0 .906.174 1.565.523 1.977.35.41.847.617 1.492.617.26 0 .55-.034.868-.102.317-.067.643-.16.976-.273.334-.115.677-.245 1.032-.39.354-.147.703-.298 1.046-.454.157-.073.31-.117.46-.133.152-.015.298.01.44.078.14.068.275.188.405.36s.257.414.382.726c.25.614.336 1.078.258 1.39-.078.313-.29.552-.633.72-.948.478-1.888.87-2.82 1.17-.933.303-1.852.454-2.758.454-1.824 0-3.21-.5-4.157-1.5-.948-1-1.422-2.48-1.422-4.438V8.86h-3.015zm21.952-1.094H60c-.177 0-.328-.02-.453-.063-.125-.042-.227-.12-.305-.234-.078-.116-.135-.277-.172-.486-.036-.208-.054-.48-.054-.812 0-.333.018-.604.054-.813.037-.21.094-.373.172-.493.078-.12.18-.2.305-.242.125-.042.276-.063.453-.063h4.28c.355 0 .608.076.76.227.15.15.226.403.226.757v3.39c.79-1.52 1.692-2.687 2.703-3.5 1.01-.812 2.035-1.218 3.077-1.218.885 0 1.72.29 2.5.874.385.29.61.638.672 1.04.06.4-.027.897-.267 1.49-.25.636-.536 1.056-.86 1.26-.322.202-.65.215-.984.038-.303-.167-.605-.29-.907-.367-.302-.078-.604-.117-.906-.117-.604 0-1.18.145-1.727.437-.547.292-1.03.698-1.453 1.22-.422.52-.758 1.14-1.008 1.858-.25.72-.376 1.505-.376 2.36v1.484h4.485c.176 0 .327.02.452.062.125.04.226.122.305.242.078.12.135.283.17.492.038.208.056.48.056.812 0 .334-.018.604-.055.813-.036.207-.093.37-.17.483-.08.115-.18.193-.306.235-.125.04-.276.062-.453.062H59.53c-.176 0-.327-.02-.452-.063-.125-.04-.226-.12-.305-.234-.078-.114-.135-.276-.17-.484-.038-.21-.056-.48-.056-.814 0-.333.018-.604.055-.812.036-.21.093-.373.17-.492.08-.12.18-.2.306-.243.125-.042.276-.063.453-.063h2.298v-8.03zm23.516 11.578c-1.21 0-2.3-.188-3.274-.563-.974-.374-1.804-.897-2.492-1.57-.687-.67-1.22-1.47-1.594-2.398-.375-.927-.562-1.937-.562-3.03 0-1.095.187-2.102.562-3.024.375-.922.907-1.72 1.594-2.39.688-.673 1.518-1.2 2.492-1.58.974-.38 2.065-.57 3.274-.57 1.208 0 2.3.19 3.273.57.974.38 1.805.907 2.492 1.58.687.67 1.218 1.468 1.593 2.39.375.922.563 1.93.563 3.023 0 1.095-.188 2.105-.563 3.033-.375.927-.906 1.726-1.594 2.398-.688.673-1.52 1.196-2.493 1.57-.974.376-2.065.564-3.273.564zm0-11.578c-.563 0-1.076.093-1.54.28-.463.188-.856.46-1.18.813-.322.354-.572.778-.75 1.273-.176.495-.265 1.044-.265 1.648 0 .616.088 1.168.265 1.658.177.49.427.91.75 1.265.323.354.716.625 1.18.813.463.187.976.28 1.54.28.56 0 1.074-.093 1.538-.28.463-.188.857-.46 1.18-.813.322-.354.572-.776.75-1.265.177-.49.265-1.042.265-1.657 0-.603-.088-1.152-.266-1.647-.177-.495-.427-.92-.75-1.274-.322-.355-.716-.626-1.18-.813-.463-.188-.976-.28-1.538-.28zm12.984 0h-1.516c-.177 0-.328-.02-.453-.063-.126-.042-.227-.12-.305-.234-.078-.116-.136-.277-.172-.486-.037-.208-.055-.48-.055-.812 0-.333.018-.604.055-.813.036-.21.094-.373.172-.493.078-.12.18-.2.304-.242.124-.042.275-.063.453-.063h3.812c.354 0 .607.076.758.227.15.15.226.403.226.757v2.266c.73-1.27 1.525-2.188 2.39-2.75.865-.563 1.786-.844 2.766-.844.718 0 1.37.12 1.953.358.582.24 1.077.578 1.483 1.016.406.437.72.97.945 1.6.224.632.336 1.337.336 2.119v6.484h1.204c.177 0 .328.02.453.062.126.04.227.122.305.242.078.12.136.283.172.492.037.208.055.48.055.812 0 .334-.018.604-.055.813-.036.207-.094.37-.172.483-.078.115-.18.193-.304.235-.124.04-.275.062-.453.062h-5.843c-.177 0-.328-.02-.453-.063-.124-.04-.226-.12-.304-.234-.078-.114-.135-.276-.172-.484-.036-.21-.055-.48-.055-.814 0-.333.018-.604.054-.812.037-.21.094-.373.172-.492.078-.12.18-.2.305-.243.126-.042.277-.063.454-.063h.734v-5.563c0-.77-.133-1.375-.398-1.812-.266-.438-.743-.656-1.43-.656-.47 0-.914.148-1.336.445-.422.298-.794.696-1.117 1.196-.323.5-.58 1.084-.774 1.75-.192.667-.29 1.365-.29 2.094v2.547h.736c.176 0 .327.02.452.062.125.04.226.122.305.242.078.12.135.283.17.492.038.208.056.48.056.812 0 .334-.018.604-.055.813-.036.207-.093.37-.17.483-.08.115-.18.193-.306.235-.125.04-.276.062-.453.062h-5.845c-.177 0-.328-.02-.453-.063-.125-.04-.227-.12-.305-.234-.078-.114-.135-.276-.172-.484-.036-.21-.054-.48-.054-.814 0-.333.02-.604.055-.812.037-.21.094-.373.172-.492.078-.12.18-.2.305-.243.125-.042.276-.063.453-.063h1.203v-8.03zm32.063 11.296c0 1-.148 1.896-.445 2.688-.297.792-.744 1.466-1.343 2.023-.6.558-1.352.982-2.258 1.274-.906.292-1.974.437-3.203.437-.76 0-1.61-.078-2.546-.234-.938-.156-1.927-.385-2.97-.688-.364-.114-.593-.333-.686-.656-.094-.323-.042-.807.156-1.453.094-.312.198-.562.312-.75.115-.187.237-.325.367-.414.13-.09.27-.136.415-.142.145-.005.302.013.468.055.73.208 1.477.383 2.242.524.766.14 1.46.21 2.086.21 1.26 0 2.16-.268 2.696-.804.536-.537.804-1.33.804-2.383v-1.672c-.53.573-1.143 1.016-1.836 1.328-.692.313-1.45.47-2.273.47-1.03 0-1.96-.186-2.79-.556-.827-.37-1.536-.88-2.124-1.53-.588-.652-1.038-1.425-1.35-2.32-.313-.897-.47-1.87-.47-2.923 0-1.052.157-2.026.47-2.922.312-.896.762-1.67 1.35-2.32.59-.65 1.298-1.162 2.126-1.532.828-.37 1.758-.554 2.79-.554 1.01 0 1.916.207 2.718.624.802.416 1.474 1.015 2.015 1.797V5.548c0-.354.075-.607.226-.758.15-.152.404-.228.758-.228h3.656c.177 0 .328.02.453.063.125.042.227.122.305.242.078.12.135.284.172.492.036.208.054.48.054.812 0 .333-.018.604-.054.812-.037.21-.094.37-.172.485-.078.113-.18.19-.305.233-.125.042-.276.063-.453.063h-1.36v11.296zm-3.796-7.515c0-.636-.097-1.19-.29-1.664-.192-.474-.452-.867-.78-1.18-.33-.312-.71-.547-1.14-.703-.433-.156-.894-.234-1.384-.234-.958 0-1.727.323-2.305.968-.578.646-.867 1.584-.867 2.813 0 1.23.29 2.167.867 2.812.578.645 1.347.968 2.305.968.49 0 .95-.078 1.383-.234.432-.156.812-.39 1.14-.703.33-.312.59-.705.782-1.18.192-.473.29-1.028.29-1.663zm9.562-6.22c-.333-.166-.52-.405-.562-.718-.042-.313.094-.782.406-1.407.156-.312.305-.56.445-.742.14-.18.28-.31.414-.382.135-.073.273-.1.413-.086.14.016.29.065.446.15l12.186 6.28c.25.125.433.29.547.492.115.203.172.53.172.977 0 .45-.057.774-.172.977-.114.203-.297.367-.547.492l-12.187 6.28c-.157.084-.306.133-.447.15-.14.015-.278-.014-.414-.087-.136-.073-.274-.2-.415-.383-.14-.182-.29-.43-.445-.742-.313-.625-.448-1.094-.406-1.406.04-.313.23-.552.562-.72l9.14-4.56-9.14-4.564z" fill="#EA508B" fill-rule="evenodd"/></svg>