<svg width="25" height="25" viewBox="0 0 25 25" xmlns="http://www.w3.org/2000/svg"><title>icon-spotify</title><path d="M6.628 22.576c1.793 1.06 3.722 1.577 5.842 1.577 2.12 0 4.076-.517 5.842-1.577 1.793-1.032 3.205-2.445 4.238-4.24 1.06-1.765 1.576-3.72 1.576-5.84 0-2.093-.516-4.05-1.576-5.842-1.033-1.766-2.445-3.18-4.238-4.24C16.546 1.385 14.59.868 12.47.868c-2.12 0-4.05.516-5.842 1.548-1.766 1.06-3.18 2.473-4.238 4.24C1.357 8.446.84 10.402.84 12.494c0 2.12.517 4.076 1.55 5.842 1.06 1.794 2.472 3.207 4.238 4.24zM4.672 8.04c.135-.163.353-.3.57-.38 1.63-.463 3.45-.708 5.516-.708 1.793 0 3.532.19 5.216.572 1.685.38 3.18.923 4.456 1.657.408.245.598.6.598 1.06 0 .327-.11.598-.325.788-.218.218-.49.327-.79.327-.19 0-.38-.082-.597-.19-1.06-.626-2.336-1.087-3.857-1.44-1.523-.354-3.07-.518-4.675-.518-1.766 0-3.315.192-4.673.572-.272.08-.49.108-.598.108-.3 0-.57-.11-.788-.327-.19-.19-.3-.46-.3-.787 0-.3.082-.544.246-.734zM5.95 11.6c1.52-.435 3.042-.653 4.59-.653 3.125 0 5.897.707 8.287 2.146.354.218.544.517.544.924 0 .244-.08.462-.27.626-.164.19-.382.27-.626.27-.162 0-.352-.054-.597-.19-2.093-1.25-4.565-1.874-7.39-1.874-1.305 0-2.582.162-3.805.488-.3.082-.49.135-.57.135-.244 0-.462-.08-.626-.27-.19-.164-.27-.38-.27-.653 0-.516.244-.843.733-.95zm.38 3.667c1.575-.353 3.015-.517 4.346-.517 2.582 0 4.837.572 6.793 1.74.298.19.434.434.434.76 0 .218-.055.38-.19.517-.164.136-.326.217-.517.217-.136 0-.3-.054-.49-.163-1.738-1.03-3.748-1.548-6.03-1.548-1.115 0-2.338.137-3.67.408-.325.08-.515.11-.57.11-.217 0-.407-.083-.543-.22-.135-.135-.19-.325-.19-.515 0-.434.217-.707.625-.788z" fill="#0A0B09" fill-rule="evenodd"/></svg>