<svg width="24" height="18" viewBox="0 0 24 18" xmlns="http://www.w3.org/2000/svg"><title>icon-twitter-inverse</title><path d="M7.798 17.885c1.642 0 3.18-.25 4.643-.752 1.438-.527 2.67-1.205 3.695-2.057 1-.853 1.898-1.83 2.642-2.935.718-1.128 1.282-2.283 1.64-3.486.36-1.204.54-2.41.54-3.638V4.44c.898-.653 1.668-1.43 2.31-2.334-.9.35-1.77.602-2.67.678C21.6 2.206 22.292 1.38 22.626.3c-.898.527-1.873.903-2.924 1.103-.923-.953-2.052-1.43-3.386-1.43-1.257 0-2.36.427-3.258 1.305-.897.903-1.36 1.957-1.36 3.21 0 .328.053.678.13 1.03-1.9-.075-3.67-.553-5.337-1.38C4.847 3.285 3.436 2.18 2.28.802c-.41.702-.64 1.454-.64 2.282 0 .752.205 1.48.564 2.157.385.654.872 1.18 1.513 1.607-.745-.025-1.438-.225-2.104-.576v.05c0 1.104.36 2.057 1.05 2.886.72.828 1.59 1.33 2.67 1.554-.41.1-.822.15-1.232.15-.257 0-.54-.023-.872-.074.307.903.846 1.656 1.64 2.233.797.6 1.695.9 2.695.9-1.693 1.307-3.59 1.934-5.746 1.934-.41 0-.77 0-1.102-.05 2.13 1.354 4.514 2.03 7.08 2.03" fill="#FFF" fill-rule="evenodd"/></svg>