<svg width="23" height="22" viewBox="0 0 23 22" xmlns="http://www.w3.org/2000/svg"><title>icon-facebook-inverse</title><path d="M2.077 19.91c.82.76 1.771 1.153 2.926 1.153h7.779v-8.317h-3.21V9.68h3.21V7.398c0-1.3.384-2.33 1.18-3.066.77-.737 1.823-1.104 3.106-1.104.821 0 1.669.048 2.593.123v2.82l-1.9.026c-.641 0-1.104.122-1.36.392-.282.27-.411.637-.411 1.128V9.68h3.337l-.436 3.066H15.99v8.317h2.747c1.13 0 2.105-.393 2.926-1.153.796-.76 1.207-1.693 1.207-2.797V3.988c0-1.079-.41-2.011-1.207-2.772-.82-.76-1.771-1.153-2.926-1.153H5.003c-1.155 0-2.105.392-2.926 1.153C1.28 1.976.87 2.91.87 3.988v13.125c0 1.104.41 2.036 1.207 2.797" fill="#FFF" fill-rule="evenodd"/></svg>