<svg width="23" height="22" viewBox="0 0 23 22" xmlns="http://www.w3.org/2000/svg"><title>icon-instgram-inverse</title><path d="M1.65 20.597c.546.52 1.19.794 1.935.794h15.803c.744 0 1.39-.272 1.936-.793.52-.545.793-1.19.793-1.935V2.86c0-.746-.273-1.39-.793-1.936-.546-.52-1.192-.794-1.936-.794H3.585c-.744 0-1.39.273-1.935.794-.52.546-.794 1.19-.794 1.935V18.66c0 .744.273 1.39.794 1.935zM3.213 9.135h1.96c-.174.57-.273 1.19-.273 1.812 0 1.76.645 3.274 1.935 4.54 1.29 1.24 2.853 1.86 4.664 1.86 1.215 0 2.307-.297 3.324-.87 1.016-.57 1.81-1.338 2.406-2.305.595-.993.893-2.06.893-3.225 0-.62-.1-1.24-.273-1.812h1.86v8.956c0 .25-.074.447-.248.597-.173.173-.37.247-.594.247H4.056c-.248 0-.446-.074-.595-.247-.172-.15-.247-.347-.247-.596V9.136zM11.5 6.58c1.19 0 2.207.398 3.026 1.215.844.82 1.265 1.787 1.265 2.928 0 1.14-.42 2.133-1.264 2.928-.82.82-1.836 1.216-3.027 1.216-1.167 0-2.184-.397-3.003-1.215-.843-.794-1.266-1.786-1.266-2.927 0-1.14.424-2.11 1.267-2.928.82-.817 1.836-1.214 3.002-1.214zm3.894-3.126c0-.273.1-.495.273-.694.2-.174.422-.273.694-.273h2.408c.248 0 .47.1.67.273.174.2.273.42.273.694v2.282c0 .273-.098.497-.272.696-.2.173-.422.273-.67.273H16.36c-.27 0-.494-.1-.693-.273-.174-.2-.273-.423-.273-.696V3.454z" fill="#FFF" fill-rule="evenodd"/></svg>