<?xml version="1.0" encoding="UTF-8" standalone="no"?>
<svg width="24px" height="18px" viewBox="0 0 24 18" version="1.1" xmlns="http://www.w3.org/2000/svg" xmlns:xlink="http://www.w3.org/1999/xlink" xmlns:sketch="http://www.bohemiancoding.com/sketch/ns">
    <!-- Generator: Sketch 3.3 (11970) - http://www.bohemiancoding.com/sketch -->
    <title>icon-twitter-inverse</title>
    <desc>Created with Sketch.</desc>
    <defs></defs>
    <g id="Desktop" stroke="none" stroke-width="1" fill="none" fill-rule="evenodd" sketch:type="MSPage">
        <g id="Desktop-HD" sketch:type="MSArtboardGroup" transform="translate(-498.000000, -422.000000)" fill="#FFFFFF">
            <g id="icon-twitter-inverse" sketch:type="MSLayerGroup" transform="translate(498.000000, 421.000000)">
                <path d="M7.79771429,18.8852941 C9.44,18.8852941 10.9782857,18.6349412 12.4411429,18.1331176 C13.8777143,17.6055882 15.1085714,16.9282941 16.1348571,16.0755294 C17.1348571,15.2227647 18.0331429,14.2448235 18.7771429,13.1405882 C19.4948571,12.0117647 20.0594286,10.8572353 20.4182857,9.65352941 C20.7782857,8.44982353 20.9577143,7.245 20.9577143,6.01558824 L20.9577143,5.43888235 C21.8548571,4.78729412 22.6251429,4.00941176 23.2662857,3.10635294 C22.368,3.45729412 21.496,3.70764706 20.5977143,3.78364706 C21.5988571,3.20582353 22.2914286,2.37876471 22.6251429,1.30023529 C21.7268571,1.82664706 20.752,2.20329412 19.7005714,2.40335294 C18.7771429,1.45 17.648,0.973882353 16.3142857,0.973882353 C15.0571429,0.973882353 13.9542857,1.39970588 13.056,2.27817647 C12.1588571,3.18123529 11.6971429,4.23517647 11.6971429,5.48917647 C11.6971429,5.81552941 11.7485714,6.16647059 11.8251429,6.51741176 C9.92685714,6.44252941 8.15657143,5.96529412 6.48914286,5.13823529 C4.848,4.28547059 3.43657143,3.18123529 2.28228571,1.80205882 C1.872,2.50394118 1.64114286,3.25611765 1.64114286,4.08429412 C1.64114286,4.83647059 1.84685714,5.56405882 2.20571429,6.24135294 C2.59085714,6.89405882 3.07771429,7.42047059 3.71885714,7.84741176 C2.97485714,7.82170588 2.28228571,7.62164706 1.616,7.27070588 L1.616,7.321 C1.616,8.42411765 1.97485714,9.37747059 2.66742857,10.2056471 C3.38514286,11.0338235 4.25714286,11.5345294 5.33485714,11.7602941 C4.92457143,11.8608824 4.51428571,11.9111765 4.104,11.9111765 C3.84685714,11.9111765 3.56457143,11.8865882 3.232,11.8362941 C3.53942857,12.7393529 4.07771429,13.4915294 4.87314286,14.0693529 C5.66857143,14.6706471 6.56685714,14.9712941 7.56685714,14.9712941 C5.87428571,16.2767059 3.976,16.9037059 1.82057143,16.9037059 C1.41028571,16.9037059 1.05142857,16.9037059 0.717714286,16.8534118 C2.84685714,18.208 5.232,18.8852941 7.79771429,18.8852941" id="Fill-178" sketch:type="MSShapeGroup"></path>
            </g>
        </g>
    </g>
</svg>