<svg width="29" height="29" viewBox="0 0 29 29" xmlns="http://www.w3.org/2000/svg"><title>icon-instagram</title><path d="M1.802 27.015c.703.672 1.534 1.023 2.492 1.023h20.344c.957 0 1.788-.351 2.491-1.023.67-.701 1.022-1.532 1.022-2.49V4.181c0-.96-.352-1.789-1.022-2.491-.703-.67-1.534-1.022-2.491-1.022H4.294c-.958 0-1.789.351-2.492 1.022-.67.702-1.021 1.532-1.021 2.49v20.344c0 .958.351 1.789 1.021 2.49zM3.814 12.26h2.523a8.095 8.095 0 0 0-.35 2.332c0 2.268.83 4.216 2.49 5.845 1.662 1.597 3.674 2.395 6.004 2.395a8.552 8.552 0 0 0 4.28-1.118 8.39 8.39 0 0 0 3.098-2.97 7.896 7.896 0 0 0 1.15-4.152c0-.798-.128-1.596-.352-2.332h2.396v11.53c0 .32-.097.574-.32.766a1.036 1.036 0 0 1-.765.32H4.9c-.319 0-.575-.096-.766-.32-.223-.192-.32-.446-.32-.767V12.26zm10.667-3.288c1.534 0 2.843.51 3.898 1.563 1.085 1.055 1.627 2.3 1.627 3.77 0 1.468-.542 2.746-1.627 3.769-1.055 1.053-2.364 1.564-3.898 1.564-1.5 0-2.81-.511-3.864-1.564-1.086-1.023-1.63-2.3-1.63-3.77 0-1.47.544-2.714 1.63-3.769 1.054-1.052 2.363-1.563 3.864-1.563zm5.015-4.026c0-.351.128-.637.351-.893.256-.223.544-.352.894-.352h3.099c.318 0 .606.129.862.352.223.256.351.542.351.893v2.939c0 .351-.128.639-.351.895-.256.223-.544.351-.862.351h-3.1c-.35 0-.637-.128-.893-.351a1.315 1.315 0 0 1-.351-.895V4.946z" fill="#0A0B09" fill-rule="evenodd"/></svg>