<svg width="30" height="29" viewBox="0 0 30 29" xmlns="http://www.w3.org/2000/svg"><title>icon-facebook</title><path d="M2.363 26.853c1.058 1.025 2.283 1.555 3.771 1.555h10.023V17.193h-4.135V13.06h4.135V9.983c0-1.752.495-3.142 1.52-4.134.994-.993 2.35-1.488 4.003-1.488 1.058 0 2.15.064 3.341.165v3.803l-2.448.034c-.826 0-1.422.165-1.752.53-.364.363-.53.858-.53 1.52v2.647h4.3l-.562 4.133h-3.738v11.215h3.54c1.455 0 2.712-.53 3.77-1.555 1.026-1.025 1.555-2.282 1.555-3.77V5.384c0-1.455-.529-2.712-1.555-3.737C26.543.622 25.32.093 23.831.093H6.133c-1.488 0-2.713.529-3.77 1.555C1.336 2.673.807 3.93.807 5.385v17.697c0 1.489.53 2.746 1.555 3.771" fill="#0A0B09" fill-rule="evenodd"/></svg>