<svg width="36" height="29" viewBox="0 0 36 29" xmlns="http://www.w3.org/2000/svg"><title>icon-chat</title><path d="M14.143 2.857c6.268 0 11.571 3.536 11.571 7.714 0 4.179-5.303 7.715-11.571 7.715-1.045 0-2.07-.1-3.074-.282l-1.065-.2-.883.622c-.402.282-.824.543-1.246.784l.703-1.688-1.949-1.125c-2.571-1.486-4.058-3.616-4.058-5.826 0-4.178 5.304-7.714 11.572-7.714zm0-2.571C6.328.286 0 4.886 0 10.57c0 3.255 2.09 6.168 5.344 8.056-.683 1.668-1.567 2.451-2.35 3.335-.222.261-.483.502-.402.884.06.341.341.583.642.583h.06c.603-.08 1.186-.181 1.728-.322a16.866 16.866 0 0 0 5.585-2.571c1.125.2 2.31.321 3.536.321 7.815 0 14.143-4.6 14.143-10.286 0-5.685-6.328-10.285-14.143-10.285zM30.656 23.77C33.911 21.882 36 18.99 36 15.714c0-3.355-2.21-6.328-5.605-8.196.301.984.462 2.009.462 3.053 0 3.596-1.848 6.911-5.203 9.362-3.114 2.25-7.192 3.496-11.511 3.496-.583 0-1.185-.04-1.768-.08C14.886 24.995 18.221 26 21.857 26c1.226 0 2.41-.12 3.536-.321a16.866 16.866 0 0 0 5.585 2.571c.542.14 1.125.241 1.727.321.322.04.623-.22.704-.582.08-.382-.181-.623-.402-.884-.784-.884-1.668-1.668-2.35-3.335z" fill-rule="evenodd"/></svg>