<svg width="23" height="22" viewBox="0 0 23 22" xmlns="http://www.w3.org/2000/svg"><title>icon-instgram-inverse</title><path d="M1.65 20.597c.546.521 1.191.794 1.935.794h15.803c.744 0 1.39-.273 1.936-.794.52-.545.793-1.19.793-1.935V2.86c0-.745-.273-1.389-.793-1.935-.546-.52-1.192-.794-1.936-.794H3.585c-.744 0-1.39.273-1.935.794-.52.546-.794 1.19-.794 1.935v15.803c0 .744.273 1.39.794 1.935zM3.213 9.135h1.96a6.288 6.288 0 0 0-.273 1.812c0 1.761.645 3.274 1.935 4.54 1.29 1.24 2.853 1.86 4.664 1.86a6.638 6.638 0 0 0 3.325-.869 6.517 6.517 0 0 0 2.406-2.306c.595-.993.893-2.06.893-3.225 0-.62-.1-1.24-.273-1.812h1.861v8.956c0 .249-.075.446-.249.596a.804.804 0 0 1-.594.247H4.056c-.248 0-.446-.074-.595-.247-.173-.15-.248-.347-.248-.596V9.135zm8.286-2.554c1.191 0 2.208.397 3.027 1.214.844.82 1.265 1.787 1.265 2.928a3.89 3.89 0 0 1-1.265 2.928c-.819.818-1.836 1.215-3.027 1.215-1.166 0-2.183-.397-3.002-1.215a3.892 3.892 0 0 1-1.266-2.928c0-1.141.423-2.109 1.266-2.928.819-.817 1.836-1.214 3.002-1.214zm3.895-3.127c0-.273.1-.495.273-.694a1.02 1.02 0 0 1 .694-.273h2.407c.248 0 .471.1.67.273.174.199.273.42.273.694v2.282c0 .273-.1.497-.273.696a1.007 1.007 0 0 1-.67.273h-2.407c-.272 0-.495-.1-.694-.273a1.021 1.021 0 0 1-.273-.696V3.454z" fill="#FFF" fill-rule="evenodd"/></svg>