<svg width="24" height="18" viewBox="0 0 24 18" xmlns="http://www.w3.org/2000/svg"><title>icon-twitter-inverse</title><path d="M7.798 17.885c1.642 0 3.18-.25 4.643-.752 1.437-.527 2.668-1.205 3.694-2.057a14.58 14.58 0 0 0 2.642-2.935c.718-1.13 1.282-2.284 1.641-3.487a12.6 12.6 0 0 0 .54-3.638v-.577a10.072 10.072 0 0 0 2.308-2.333c-.898.351-1.77.602-2.668.678 1-.578 1.693-1.405 2.027-2.484a9.128 9.128 0 0 1-2.924 1.103c-.924-.953-2.053-1.43-3.387-1.43-1.257 0-2.36.427-3.258 1.305-.897.903-1.359 1.957-1.359 3.211 0 .327.052.677.128 1.028A13.029 13.029 0 0 1 6.49 4.138C4.848 3.285 3.437 2.181 2.282.802c-.41.702-.64 1.454-.64 2.282 0 .752.205 1.48.564 2.157a4.81 4.81 0 0 0 1.513 1.606 4.805 4.805 0 0 1-2.103-.576v.05c0 1.103.359 2.056 1.051 2.885.718.828 1.59 1.329 2.668 1.554-.41.1-.82.151-1.231.151a5.83 5.83 0 0 1-.872-.075 4.48 4.48 0 0 0 1.641 2.233 4.354 4.354 0 0 0 2.694.902c-1.693 1.306-3.591 1.933-5.746 1.933-.41 0-.77 0-1.103-.05 2.129 1.354 4.514 2.031 7.08 2.031" fill="#FFF" fill-rule="evenodd"/></svg>