<?xml version="1.0" encoding="UTF-8"?>
<svg width="29px" height="29px" viewBox="0 0 29 29" version="1.1" xmlns="http://www.w3.org/2000/svg" xmlns:xlink="http://www.w3.org/1999/xlink">
    <!-- Generator: Sketch 40.3 (33839) - http://www.bohemiancoding.com/sketch -->
    <title>icon-instagram</title>
    <desc>Created with Sketch.</desc>
    <defs></defs>
    <g id="Templates" stroke="none" stroke-width="1" fill="none" fill-rule="evenodd">
        <g id="Landing" transform="translate(-862.000000, -29.000000)" fill="#0A0B09">
            <g id="icon-instagram" transform="translate(862.000000, 29.500000)">
                <path d="M1.80216334,26.5151361 C2.50505989,27.1867296 3.33601452,27.5381779 4.29360436,27.5381779 L24.6377641,27.5381779 C25.5953539,27.5381779 26.4263085,27.1867296 27.1292051,26.5151361 C27.7993757,25.8136624 28.150824,24.9827078 28.150824,24.025118 L28.150824,3.68095826 C28.150824,2.72194555 27.7993757,1.89241379 27.1292051,1.18951724 C26.4263085,0.519346642 25.5953539,0.167898367 24.6377641,0.167898367 L4.29360436,0.167898367 C3.33601452,0.167898367 2.50505989,0.519346642 1.80216334,1.18951724 C1.13199274,1.89241379 0.780544465,2.72194555 0.780544465,3.68095826 L0.780544465,24.025118 C0.780544465,24.9827078 1.13199274,25.8136624 1.80216334,26.5151361 L1.80216334,26.5151361 Z M3.814098,11.76 L6.33684211,11.76 C6.11345191,12.4956225 5.9868167,13.2938512 5.9868167,14.0920799 C5.9868167,16.3601307 6.81634846,18.3080363 8.47683485,19.9372196 C10.1387441,21.533677 12.1506788,22.3319056 14.4813358,22.3319056 C16.04649,22.3319056 17.4522831,21.9491543 18.7613212,21.2135318 C20.0703593,20.4793321 21.0919782,19.4890163 21.8589038,18.2440073 C22.6258294,16.9662722 23.0085808,15.5932051 23.0085808,14.0920799 C23.0085808,13.2938512 22.8805227,12.4956225 22.6571325,11.76 L25.0532414,11.76 L25.0532414,23.2894955 C25.0532414,23.6096407 24.9564864,23.8643339 24.7330962,24.0564211 C24.509706,24.2798113 24.2550127,24.3751434 23.9675935,24.3751434 L4.89974592,24.3751434 C4.58102359,24.3751434 4.32490744,24.2798113 4.13424319,24.0564211 C3.91085299,23.8643339 3.814098,23.6096407 3.814098,23.2894955 L3.814098,11.76 L3.814098,11.76 Z M14.4813358,8.47175318 C16.0151869,8.47175318 17.324225,8.98256261 18.3785699,10.0354846 C19.4642178,11.0898294 20.0063303,12.3348385 20.0063303,13.8046606 C20.0063303,15.2730599 19.4642178,16.5507949 18.3785699,17.5738367 C17.324225,18.6267586 16.0151869,19.1375681 14.4813358,19.1375681 C12.9802105,19.1375681 11.6711724,18.6267586 10.6168276,17.5738367 C9.53117967,16.5507949 8.98764428,15.2730599 8.98764428,13.8046606 C8.98764428,12.3348385 9.53117967,11.0898294 10.6168276,10.0354846 C11.6711724,8.98256261 12.9802105,8.47175318 14.4813358,8.47175318 L14.4813358,8.47175318 Z M19.4955209,4.44646098 C19.4955209,4.0950127 19.6235789,3.80901633 19.8469691,3.55290018 C20.1030853,3.32950998 20.3905045,3.20145191 20.7405299,3.20145191 L23.8395354,3.20145191 C24.1582577,3.20145191 24.445677,3.32950998 24.7017931,3.55290018 C24.9251833,3.80901633 25.0532414,4.0950127 25.0532414,4.44646098 L25.0532414,7.3846824 C25.0532414,7.73613067 24.9251833,8.02354991 24.7017931,8.27966606 C24.445677,8.50305626 24.1582577,8.63111434 23.8395354,8.63111434 L20.7405299,8.63111434 C20.3905045,8.63111434 20.1030853,8.50305626 19.8469691,8.27966606 C19.6235789,8.02354991 19.4955209,7.73613067 19.4955209,7.3846824 L19.4955209,4.44646098 L19.4955209,4.44646098 Z" id="Fill-46"></path>
            </g>
        </g>
    </g>
</svg>