<svg width="25" height="24" viewBox="0 0 25 24" xmlns="http://www.w3.org/2000/svg"><title>icon-spotify-inverse</title><path d="M6.628 22.076c1.793 1.06 3.722 1.577 5.842 1.577 2.12 0 4.076-.517 5.842-1.577a11.334 11.334 0 0 0 4.238-4.239c1.06-1.766 1.576-3.722 1.576-5.842 0-2.092-.516-4.048-1.576-5.84a11.74 11.74 0 0 0-4.238-4.24C16.546.883 14.589.367 12.47.367c-2.12 0-4.05.516-5.842 1.548a12.168 12.168 0 0 0-4.238 4.24 11.527 11.527 0 0 0-1.55 5.84c0 2.12.517 4.076 1.55 5.842 1.059 1.794 2.472 3.207 4.238 4.24zM4.672 7.54c.135-.162.353-.299.57-.38 1.63-.462 3.45-.707 5.516-.707 1.793 0 3.532.191 5.216.572 1.685.38 3.18.923 4.456 1.657.408.244.598.598.598 1.059 0 .327-.109.598-.325.788a1.09 1.09 0 0 1-.789.327c-.19 0-.38-.082-.598-.19-1.059-.626-2.336-1.087-3.857-1.44a20.52 20.52 0 0 0-4.674-.518c-1.766 0-3.315.192-4.673.572-.272.08-.49.109-.598.109a1.09 1.09 0 0 1-.788-.327c-.19-.19-.299-.461-.299-.788 0-.3.081-.544.245-.734zm1.277 3.56a16.6 16.6 0 0 1 4.591-.652c3.125 0 5.897.707 8.287 2.146.354.218.544.517.544.924a.79.79 0 0 1-.271.626.79.79 0 0 1-.626.27c-.162 0-.352-.054-.597-.19-2.093-1.25-4.565-1.874-7.391-1.874-1.304 0-2.581.163-3.804.489-.299.082-.489.135-.57.135a.79.79 0 0 1-.626-.27c-.19-.164-.27-.381-.27-.653 0-.516.244-.843.733-.95zm.38 3.668c1.576-.353 3.016-.517 4.347-.517 2.582 0 4.837.572 6.793 1.74.3.19.435.434.435.76 0 .218-.055.381-.19.517-.164.136-.326.217-.517.217-.136 0-.3-.054-.49-.163-1.738-1.032-3.748-1.549-6.031-1.549-1.114 0-2.337.137-3.668.408-.326.081-.516.109-.57.109a.76.76 0 0 1-.544-.218.717.717 0 0 1-.19-.516c0-.434.217-.707.625-.788z" fill="#FFF" fill-rule="evenodd"/></svg>