<?xml version="1.0" encoding="UTF-8"?>
<svg width="34px" height="28px" viewBox="0 0 34 28" version="1.1" xmlns="http://www.w3.org/2000/svg" xmlns:xlink="http://www.w3.org/1999/xlink">
    <!-- Generator: Sketch 40.3 (33839) - http://www.bohemiancoding.com/sketch -->
    <title>icon-twitter</title>
    <desc>Created with Sketch.</desc>
    <defs></defs>
    <g id="Templates" stroke="none" stroke-width="1" fill="none" fill-rule="evenodd">
        <g id="Landing" transform="translate(-1126.000000, -70.000000)" fill="#0A0B09">
            <g id="fa-twitter" transform="translate(1127.000000, 70.000000)">
                <path d="M9.8081159,27.7079695 C12.2285628,27.7079695 14.4957317,27.3306695 16.6517317,26.5743851 C18.7689912,25.7793601 20.5830631,24.7586288 22.0956319,23.4734507 C23.56946,22.1882725 24.8933788,20.7144443 25.989907,19.0502818 C27.0476945,17.349063 27.8797758,15.6091036 28.4086696,13.7950316 C28.9392477,11.9809597 29.2036946,10.1652034 29.2036946,8.31239086 L29.2036946,7.44325334 C30.525929,6.46126268 31.6611978,5.28893765 32.6061322,3.92796261 C31.2822134,4.45685638 29.9970352,4.83415639 28.6731164,4.94869389 C30.148629,4.07787199 31.1693603,2.83143446 31.6611978,1.20601253 C30.337279,1.99935318 28.9005071,2.56698757 27.350882,2.86849071 C25.989907,1.43171879 24.3257444,0.71417502 22.3600788,0.71417502 C20.5072662,0.71417502 18.8818443,1.35592191 17.5579255,2.6798407 C16.2356911,4.04081574 15.5552036,5.62918141 15.5552036,7.51905021 C15.5552036,8.01088773 15.6310004,8.53978149 15.7438536,9.06867526 C12.9461066,8.95582213 10.3370097,8.23659398 7.87950647,6.99015645 C5.4607439,5.70497829 3.38054072,4.04081574 1.67932192,1.96229693 C1.07463128,3.02008446 0.734387521,4.15366887 0.734387521,5.40179078 C0.734387521,6.53537519 1.03757503,7.63190334 1.56646879,8.65263462 C2.13410319,9.63630965 2.85164696,10.4296503 3.79658136,11.0730816 C2.7000532,11.0343409 1.67932192,10.7328378 0.69733127,10.203944 L0.69733127,10.2797409 C0.69733127,11.9422191 1.22622503,13.378991 2.24695631,14.6271129 C3.30474384,15.8752348 4.589922,16.6298348 6.17828767,16.9700786 C5.57359703,17.1216724 4.96890639,17.1974692 4.36421575,17.1974692 C3.98523136,17.1974692 3.56919073,17.160413 3.07903759,17.0846161 C3.53213447,18.4455911 4.32547512,19.5791756 5.49780016,20.4499975 C6.67012519,21.3561912 7.99404398,21.8092881 9.46787214,21.8092881 C6.9733127,23.7766382 4.17556574,24.7215726 0.998834403,24.7215726 C0.394143761,24.7215726 -0.134750004,24.7215726 -0.626587518,24.6457757 C2.5114032,26.6872383 6.02669392,27.7079695 9.8081159,27.7079695" id="Fill-178"></path>
            </g>
        </g>
    </g>
</svg>