<svg width="29" height="30" viewBox="0 0 29 30" xmlns="http://www.w3.org/2000/svg"><title>icon-linkedin</title><path d="M2.119 27.58c1.058 1.025 2.282 1.555 3.77 1.555h17.697c1.488 0 2.713-.53 3.77-1.555 1.027-1.025 1.556-2.282 1.556-3.77V6.111c0-1.455-.53-2.712-1.555-3.737C26.299 1.349 25.074.82 23.586.82H5.89c-1.489 0-2.713.529-3.771 1.555C1.093 3.4.564 4.657.564 6.112v17.697c0 1.489.529 2.746 1.555 3.771zM5.327 6.212c.463-.43 1.058-.63 1.754-.63.728 0 1.289.2 1.72.63.43.43.661.96.661 1.587 0 .63-.199 1.158-.662 1.589-.43.429-1.025.628-1.753.628s-1.29-.2-1.72-.628c-.43-.43-.662-.96-.662-1.589 0-.628.232-1.157.662-1.587zm-.397 5.523h4.267v12.768H4.93V11.735zm6.616 0h4.266v1.853h-.032c.893-1.422 2.182-2.15 3.837-2.15 1.489 0 2.68.496 3.572 1.456.893.96 1.356 2.381 1.356 4.3v7.31H20.28v-6.847c0-1.92-.728-2.878-2.15-2.878-.53 0-.994.165-1.358.462-.364.298-.661.662-.826 1.092-.099.2-.133.563-.133 1.026v7.144h-4.266c.032-7.707.032-11.973 0-12.768z" fill="#0A0B09" fill-rule="evenodd"/></svg>