<svg width="23" height="22" viewBox="0 0 23 22" xmlns="http://www.w3.org/2000/svg"><title>icon-github-inverse</title><path d="M2.89 17.741c1.34 1.86 3.101 3.15 5.235 3.846.248.05.422.024.546-.1a.494.494 0 0 0 .173-.397v-1.985l-.323.05c-.198.05-.446.05-.768.05a4.53 4.53 0 0 1-.968-.1 1.936 1.936 0 0 1-.917-.42c-.299-.2-.497-.497-.62-.845l-.125-.322a3.922 3.922 0 0 0-.447-.695c-.198-.273-.397-.447-.595-.52l-.099-.075a.581.581 0 0 1-.174-.174.54.54 0 0 1-.124-.198c-.025-.05 0-.1.075-.15.05-.05.198-.073.397-.073l.273.05c.173.05.42.147.67.322.272.198.496.447.693.718.2.398.447.67.77.87.298.198.595.297.893.297a7.1 7.1 0 0 0 .794-.05 2.61 2.61 0 0 0 .62-.223c.075-.62.298-1.091.67-1.414a16.83 16.83 0 0 1-1.414-.248 6.355 6.355 0 0 1-1.29-.546 4.088 4.088 0 0 1-1.117-.918c-.297-.372-.546-.868-.743-1.464a7.45 7.45 0 0 1-.273-2.083c0-1.116.372-2.06 1.09-2.854-.347-.843-.297-1.786.1-2.827.273-.075.67 0 1.191.198.52.199.918.372 1.166.52.223.15.422.273.57.398a9.675 9.675 0 0 1 2.68-.372c.893 0 1.786.124 2.655.372l.52-.348c.347-.223.794-.42 1.266-.594.496-.2.867-.25 1.116-.174.421 1.041.471 1.984.124 2.827.72.795 1.092 1.738 1.092 2.854 0 .794-.1 1.488-.273 2.083-.199.62-.447 1.092-.745 1.464-.297.348-.67.67-1.116.918a6.53 6.53 0 0 1-1.314.546c-.423.099-.894.174-1.415.248.472.397.72 1.066.72 1.96v2.927c0 .15.05.298.173.397.125.124.298.15.546.1 2.133-.696 3.895-1.985 5.234-3.846 1.365-1.835 2.035-3.92 2.035-6.227 0-1.935-.472-3.721-1.415-5.358a11.11 11.11 0 0 0-3.87-3.87A10.53 10.53 0 0 0 11.5.871c-1.935 0-3.722.47-5.358 1.413A11.122 11.122 0 0 0 2.27 6.156C1.327 7.793.856 9.58.856 11.514c0 2.307.67 4.392 2.034 6.227" fill="#FFF" fill-rule="evenodd"/></svg>