<svg width="21" height="23" viewBox="0 0 21 23" xmlns="http://www.w3.org/2000/svg"><title>icon-pdf-inverse</title><path d="M1.229 22.107c.225.246.516.359.853.359h16.812c.337 0 .628-.113.853-.359.247-.225.359-.517.359-.853V6.843c0-.336-.09-.718-.247-1.122-.18-.381-.382-.718-.606-.943L15.348.873c-.225-.225-.562-.427-.943-.606C14.001.11 13.619.02 13.282.02h-11.2c-.337 0-.628.112-.853.359C.982.604.87.895.87 1.232v20.022c0 .336.112.628.359.853zM2.464 1.614h9.629v5.207c0 .337.112.629.359.853.224.247.516.359.853.359h5.207v12.839H2.464V1.614zm1.683 17.35c.045.023.067.045.09.045l.292.157c.112.068.224.09.359.09.74 0 1.75-1.1 3.03-3.277 1.414-.494 3.053-.853 4.916-1.055.516.292 1.054.494 1.616.673.561.157 1.055.247 1.459.247.538 0 .83-.157.875-.494.022 0 .022-.022.022-.022l.023-.022c.112-.247.112-.472-.023-.651-.247-.404-.987-.606-2.222-.606-.494 0-.987.022-1.481.089a13.706 13.706 0 0 1-1.033-.695c-.763-.629-1.369-1.617-1.84-2.986.112-.583.157-1.391.179-2.401v-.382c0-.045 0-.067-.022-.112.022 0 .045-.045.067-.09.068-.382.023-.673-.112-.853a.591.591 0 0 0-.449-.18h-.269c-.269 0-.449.158-.539.494-.112.427-.135.965-.067 1.594.045.651.179 1.324.381 1.998a20.198 20.198 0 0 1-1.302 3.277c-.471.942-.92 1.75-1.346 2.469 0-.023 0-.023-.023-.045-.09-.135-.179-.157-.291-.09-.719.382-1.257.786-1.662 1.212-.381.449-.628.831-.695 1.145-.023.224 0 .381.067.471zm1.324-1.324a6.147 6.147 0 0 1 1.1-1.033c-.718 1.1-1.302 1.774-1.728 1.976.112-.247.314-.562.628-.943zm3.367-3.345c.472-.92.808-1.75 1.033-2.469.426.921.965 1.639 1.616 2.2a.55.55 0 0 0 .202.18c.09.067.135.112.157.112a18.152 18.152 0 0 0-3.569 1.01c.135-.225.314-.584.561-1.033zm.988-7.227v-.023l.022-.022c.09.112.157.247.157.427v.022l.023.022v.023c-.023.045-.045.067-.045.112-.067.337-.09.516-.09.539-.045.292-.09.494-.09.538-.112-.74-.089-1.301.023-1.638zm3.86-5.365c.247.09.404.18.517.292l3.928 3.928c.112.112.202.27.292.516h-4.737V1.703zm2.694 14.423l.022.022c-.045.023-.112.023-.224.023-.404 0-.92-.112-1.571-.337.987 0 1.571.09 1.773.292z" fill="#FFF" fill-rule="evenodd"/></svg>