<?xml version="1.0" encoding="UTF-8"?>
<svg width="30px" height="29px" viewBox="0 0 30 29" version="1.1" xmlns="http://www.w3.org/2000/svg" xmlns:xlink="http://www.w3.org/1999/xlink">
    <!-- Generator: Sketch 40.3 (33839) - http://www.bohemiancoding.com/sketch -->
    <title>icon-github</title>
    <desc>Created with Sketch.</desc>
    <defs></defs>
    <g id="Templates" stroke="none" stroke-width="1" fill="none" fill-rule="evenodd">
        <g id="Landing" transform="translate(-1042.000000, -29.000000)" fill="#000000">
            <g id="icon-github" transform="translate(1042.510945, 29.500000)">
                <path d="M2.792,23.1596632 C4.62913684,25.7107368 7.04530526,27.4796632 9.97077895,28.4330947 C10.3118316,28.5013053 10.5498105,28.4664421 10.7195789,28.2966737 C10.8893474,28.1602526 10.9575579,27.9571368 10.9575579,27.7525053 L10.9575579,26.7308632 L10.9575579,25.0301474 L10.5149474,25.0983579 C10.2436211,25.1665684 9.90256842,25.1665684 9.46147368,25.1665684 C9.05221053,25.1665684 8.6096,25.1332211 8.13364211,25.0301474 C7.69103158,24.9619368 7.24993684,24.7588211 6.87553684,24.4526316 C6.46627368,24.1797895 6.19494737,23.7720421 6.02517895,23.2945684 L5.85389474,22.8534737 C5.71898947,22.5806316 5.51435789,22.2410947 5.24151579,21.9000421 C4.97018947,21.5256421 4.69734737,21.2876632 4.42602105,21.1861053 L4.2896,21.0845474 C4.18804211,21.0163368 4.11983158,20.9481263 4.05162105,20.8450526 C3.98341053,20.7783579 3.9152,20.6752842 3.88033684,20.5737263 C3.84698947,20.5055158 3.88033684,20.4373053 3.98341053,20.3690947 C4.05162105,20.3008842 4.25473684,20.2675368 4.52757895,20.2675368 L4.90197895,20.3357474 C5.13995789,20.4039579 5.47949474,20.5388632 5.82054737,20.7783579 C6.19494737,21.0496842 6.50113684,21.3907368 6.77246316,21.7636211 C7.04530526,22.3093053 7.38484211,22.6821895 7.82745263,22.9550316 C8.23671579,23.2278737 8.64446316,23.3627789 9.05221053,23.3627789 C9.46147368,23.3627789 9.83435789,23.3294316 10.1420632,23.2945684 C10.4467368,23.2278737 10.7195789,23.1248 10.9924211,22.9883789 C11.0939789,22.1380211 11.4001684,21.4922947 11.9109895,21.0496842 C11.1955368,20.9481263 10.5498105,20.8450526 9.97077895,20.7101474 C9.39326316,20.5388632 8.81423158,20.3008842 8.20185263,19.9613474 C7.58947368,19.6202947 7.07865263,19.1792 6.67090526,18.7017263 C6.26315789,18.1924211 5.92210526,17.5118316 5.65077895,16.6948211 C5.4128,15.8778105 5.27637895,14.9258947 5.27637895,13.8375579 C5.27637895,12.3066105 5.7872,11.0136421 6.77246316,9.92378947 C6.29650526,8.76724211 6.36471579,7.47427368 6.90888421,6.0464 C7.28328421,5.94332632 7.82745263,6.0464 8.54290526,6.31772632 C9.25684211,6.59056842 9.80101053,6.82854737 10.1420632,7.03166316 C10.4467368,7.23629474 10.7195789,7.40606316 10.9242105,7.57734737 C12.1141053,7.23629474 13.3388632,7.06652632 14.5984842,7.06652632 C15.8232421,7.06652632 17.048,7.23629474 18.2394105,7.57734737 L18.9533474,7.09987368 C19.4293053,6.79368421 20.0416842,6.52235789 20.6889263,6.28437895 C21.3695158,6.01153684 21.8788211,5.94332632 22.2198737,6.0464 C22.7973895,7.47427368 22.8656,8.76724211 22.3896421,9.92378947 C23.3764211,11.0136421 23.8872421,12.3066105 23.8872421,13.8375579 C23.8872421,14.9258947 23.7508211,15.8778105 23.5128421,16.6948211 C23.24,17.5451789 22.9004632,18.1924211 22.4912,18.7017263 C22.0834526,19.1792 21.5726316,19.6202947 20.9602526,19.9613474 C20.3478737,20.3008842 19.7354947,20.5388632 19.1579789,20.7101474 C18.5789474,20.8450526 17.9332211,20.9481263 17.2177684,21.0496842 C17.8650105,21.5938526 18.2045474,22.5124211 18.2045474,23.7371789 L18.2045474,27.7525053 C18.2045474,27.9571368 18.2727579,28.1602526 18.4425263,28.2966737 C18.6138105,28.4664421 18.8517895,28.5013053 19.1913263,28.4330947 C22.1168,27.4796632 24.5329684,25.7107368 26.3701053,23.1596632 C28.2421053,20.6419368 29.1606737,17.7831579 29.1606737,14.6197053 C29.1606737,11.9655579 28.5134316,9.51604211 27.2204632,7.27115789 C25.8941474,5.05962105 24.1252211,3.28917895 21.9136842,1.96286316 C19.6672842,0.669894737 17.2177684,0.0241684211 14.5984842,0.0241684211 C11.9443368,0.0241684211 9.49482105,0.669894737 7.24993684,1.96286316 C5.0384,3.28917895 3.26947368,5.05962105 1.94164211,7.27115789 C0.648673684,9.51604211 0.00294736842,11.9655579 0.00294736842,14.6197053 C0.00294736842,17.7831579 0.921515789,20.6419368 2.792,23.1596632" id="Fill-172"></path>
            </g>
        </g>
    </g>
</svg>