<?xml version="1.0" encoding="UTF-8"?>
<svg width="29px" height="30px" viewBox="0 0 29 30" version="1.1" xmlns="http://www.w3.org/2000/svg" xmlns:xlink="http://www.w3.org/1999/xlink">
    <!-- Generator: Sketch 40.3 (33839) - http://www.bohemiancoding.com/sketch -->
    <title>icon-linkedin</title>
    <desc>Created with Sketch.</desc>
    <defs></defs>
    <g id="Templates" stroke="none" stroke-width="1" fill="none" fill-rule="evenodd">
        <g id="Landing" transform="translate(-952.000000, -29.000000)" fill="#0A0B09">
            <g id="icon-linkedin" transform="translate(952.755472, 29.500000)">
                <path d="M1.36315789,27.0804211 C2.42126316,28.1046316 3.64589474,28.6351579 5.13431579,28.6351579 L22.8303158,28.6351579 C24.3187368,28.6351579 25.5433684,28.1046316 26.6014737,27.0804211 C27.6271579,26.0547368 28.1562105,24.7976842 28.1562105,23.3092632 L28.1562105,5.61178947 C28.1562105,4.15726316 27.6271579,2.90021053 26.6014737,1.87452632 C25.5433684,0.848842105 24.3187368,0.319789474 22.8303158,0.319789474 L5.13431579,0.319789474 C3.64589474,0.319789474 2.42126316,0.848842105 1.36315789,1.87452632 C0.337473684,2.90021053 -0.191578947,4.15726316 -0.191578947,5.61178947 L-0.191578947,23.3092632 C-0.191578947,24.7976842 0.337473684,26.0547368 1.36315789,27.0804211 L1.36315789,27.0804211 Z M4.57136842,5.712 C5.03410526,5.28168421 5.62947368,5.08273684 6.32505263,5.08273684 C7.05305263,5.08273684 7.61452632,5.28168421 8.04484211,5.712 C8.47515789,6.14231579 8.70652632,6.67136842 8.70652632,7.29915789 C8.70652632,7.92842105 8.50757895,8.45747368 8.04484211,8.88778947 C7.61452632,9.31663158 7.01915789,9.51557895 6.29115789,9.51557895 C5.56315789,9.51557895 5.00168421,9.31663158 4.57136842,8.88778947 C4.14105263,8.45747368 3.90968421,7.92842105 3.90968421,7.29915789 C3.90968421,6.67136842 4.14105263,6.14231579 4.57136842,5.712 L4.57136842,5.712 Z M4.17494737,11.2353684 L8.44126316,11.2353684 L8.44126316,24.0033684 L4.17494737,24.0033684 L4.17494737,11.2353684 Z M10.7903158,11.2353684 L15.0566316,11.2353684 L15.0566316,13.0877895 L15.0242105,13.0877895 C15.9172632,11.6656842 17.2067368,10.9376842 18.8616842,10.9376842 C20.3501053,10.9376842 21.5408421,11.4343158 22.4338947,12.3936842 C23.3269474,13.3530526 23.7896842,14.7751579 23.7896842,16.6938947 L23.7896842,24.0033684 L19.5233684,24.0033684 L19.5233684,17.1566316 C19.5233684,15.2378947 18.7953684,14.2785263 17.3732632,14.2785263 C16.8442105,14.2785263 16.38,14.4435789 16.016,14.7412632 C15.652,15.0389474 15.3543158,15.4029474 15.1892632,15.8332632 C15.0905263,16.0322105 15.0566316,16.3962105 15.0566316,16.8589474 L15.0566316,24.0033684 L10.7903158,24.0033684 C10.8227368,16.296 10.8227368,12.0296842 10.7903158,11.2353684 L10.7903158,11.2353684 Z" id="Fill-66"></path>
            </g>
        </g>
    </g>
</svg>