<svg width="30" height="29" viewBox="0 0 30 29" xmlns="http://www.w3.org/2000/svg"><title>icon-github</title><path d="M3.303 23.66c1.837 2.55 4.253 4.32 7.179 5.273.34.068.579.033.749-.136a.677.677 0 0 0 .238-.544V25.53l-.443.067c-.271.069-.612.069-1.054.069-.409 0-.851-.034-1.327-.137a2.655 2.655 0 0 1-1.259-.577c-.409-.273-.68-.681-.85-1.158l-.171-.442a5.378 5.378 0 0 0-.613-.953c-.27-.374-.544-.612-.815-.714l-.136-.101a.797.797 0 0 1-.238-.24.741.741 0 0 1-.172-.271c-.033-.068 0-.137.103-.205.069-.068.272-.101.545-.101l.374.068c.238.068.577.203.918.442.375.272.681.613.952.986.273.545.613.918 1.055 1.191.41.273.817.408 1.225.408.41 0 .782-.034 1.09-.068.305-.067.578-.17.85-.307.102-.85.408-1.496.919-1.938a22.9 22.9 0 0 1-1.94-.34 8.715 8.715 0 0 1-1.77-.749 5.607 5.607 0 0 1-1.53-1.26c-.408-.509-.749-1.19-1.02-2.006-.238-.817-.375-1.77-.375-2.857 0-1.531.511-2.824 1.496-3.914-.476-1.157-.407-2.45.137-3.878.374-.103.918 0 1.634.272.714.273 1.258.51 1.599.714.305.204.578.374.782.545a13.31 13.31 0 0 1 3.674-.51c1.225 0 2.45.17 3.641.51l.714-.477c.476-.306 1.089-.578 1.736-.816.68-.272 1.19-.34 1.53-.238.578 1.428.647 2.721.17 3.878.987 1.09 1.498 2.383 1.498 3.914 0 1.088-.136 2.04-.374 2.857-.273.85-.613 1.497-1.022 2.007a5.607 5.607 0 0 1-1.53 1.26 8.955 8.955 0 0 1-1.803.748 22.9 22.9 0 0 1-1.94.34c.647.544.986 1.462.986 2.687v4.016a.68.68 0 0 0 .238.544c.172.17.41.204.75.136 2.925-.953 5.34-2.722 7.178-5.273 1.872-2.518 2.79-5.377 2.79-8.54 0-2.654-.647-5.104-1.94-7.349a15.236 15.236 0 0 0-5.306-5.308C20.178 1.17 17.729.524 15.109.524c-2.654 0-5.103.646-7.348 1.939A15.253 15.253 0 0 0 2.453 7.77C1.16 10.016.513 12.466.513 15.12c0 3.163.92 6.022 2.79 8.54" fill-rule="evenodd"/></svg>