<?xml version="1.0" encoding="UTF-8"?>
<svg width="30px" height="29px" viewBox="0 0 30 29" version="1.1" xmlns="http://www.w3.org/2000/svg" xmlns:xlink="http://www.w3.org/1999/xlink">
    <!-- Generator: Sketch 40.3 (33839) - http://www.bohemiancoding.com/sketch -->
    <title>icon-github</title>
    <desc>Created with Sketch.</desc>
    <defs></defs>
    <g id="Templates" stroke="none" stroke-width="1" fill="none" fill-rule="evenodd">
        <g id="Landing" transform="translate(-1042.000000, -29.000000)" fill="#D9FFF7">
            <g id="icon-github" style="mix-blend-mode: exclusion;" transform="translate(1041.510945, 28.500000)">
                <path d="M3.792,24.1596632 C5.62913684,26.7107368 8.04530526,28.4796632 10.9707789,29.4330947 C11.3118316,29.5013053 11.5498105,29.4664421 11.7195789,29.2966737 C11.8893474,29.1602526 11.9575579,28.9571368 11.9575579,28.7525053 L11.9575579,27.7308632 L11.9575579,26.0301474 L11.5149474,26.0983579 C11.2436211,26.1665684 10.9025684,26.1665684 10.4614737,26.1665684 C10.0522105,26.1665684 9.6096,26.1332211 9.13364211,26.0301474 C8.69103158,25.9619368 8.24993684,25.7588211 7.87553684,25.4526316 C7.46627368,25.1797895 7.19494737,24.7720421 7.02517895,24.2945684 L6.85389474,23.8534737 C6.71898947,23.5806316 6.51435789,23.2410947 6.24151579,22.9000421 C5.97018947,22.5256421 5.69734737,22.2876632 5.42602105,22.1861053 L5.2896,22.0845474 C5.18804211,22.0163368 5.11983158,21.9481263 5.05162105,21.8450526 C4.98341053,21.7783579 4.9152,21.6752842 4.88033684,21.5737263 C4.84698947,21.5055158 4.88033684,21.4373053 4.98341053,21.3690947 C5.05162105,21.3008842 5.25473684,21.2675368 5.52757895,21.2675368 L5.90197895,21.3357474 C6.13995789,21.4039579 6.47949474,21.5388632 6.82054737,21.7783579 C7.19494737,22.0496842 7.50113684,22.3907368 7.77246316,22.7636211 C8.04530526,23.3093053 8.38484211,23.6821895 8.82745263,23.9550316 C9.23671579,24.2278737 9.64446316,24.3627789 10.0522105,24.3627789 C10.4614737,24.3627789 10.8343579,24.3294316 11.1420632,24.2945684 C11.4467368,24.2278737 11.7195789,24.1248 11.9924211,23.9883789 C12.0939789,23.1380211 12.4001684,22.4922947 12.9109895,22.0496842 C12.1955368,21.9481263 11.5498105,21.8450526 10.9707789,21.7101474 C10.3932632,21.5388632 9.81423158,21.3008842 9.20185263,20.9613474 C8.58947368,20.6202947 8.07865263,20.1792 7.67090526,19.7017263 C7.26315789,19.1924211 6.92210526,18.5118316 6.65077895,17.6948211 C6.4128,16.8778105 6.27637895,15.9258947 6.27637895,14.8375579 C6.27637895,13.3066105 6.7872,12.0136421 7.77246316,10.9237895 C7.29650526,9.76724211 7.36471579,8.47427368 7.90888421,7.0464 C8.28328421,6.94332632 8.82745263,7.0464 9.54290526,7.31772632 C10.2568421,7.59056842 10.8010105,7.82854737 11.1420632,8.03166316 C11.4467368,8.23629474 11.7195789,8.40606316 11.9242105,8.57734737 C13.1141053,8.23629474 14.3388632,8.06652632 15.5984842,8.06652632 C16.8232421,8.06652632 18.048,8.23629474 19.2394105,8.57734737 L19.9533474,8.09987368 C20.4293053,7.79368421 21.0416842,7.52235789 21.6889263,7.28437895 C22.3695158,7.01153684 22.8788211,6.94332632 23.2198737,7.0464 C23.7973895,8.47427368 23.8656,9.76724211 23.3896421,10.9237895 C24.3764211,12.0136421 24.8872421,13.3066105 24.8872421,14.8375579 C24.8872421,15.9258947 24.7508211,16.8778105 24.5128421,17.6948211 C24.24,18.5451789 23.9004632,19.1924211 23.4912,19.7017263 C23.0834526,20.1792 22.5726316,20.6202947 21.9602526,20.9613474 C21.3478737,21.3008842 20.7354947,21.5388632 20.1579789,21.7101474 C19.5789474,21.8450526 18.9332211,21.9481263 18.2177684,22.0496842 C18.8650105,22.5938526 19.2045474,23.5124211 19.2045474,24.7371789 L19.2045474,28.7525053 C19.2045474,28.9571368 19.2727579,29.1602526 19.4425263,29.2966737 C19.6138105,29.4664421 19.8517895,29.5013053 20.1913263,29.4330947 C23.1168,28.4796632 25.5329684,26.7107368 27.3701053,24.1596632 C29.2421053,21.6419368 30.1606737,18.7831579 30.1606737,15.6197053 C30.1606737,12.9655579 29.5134316,10.5160421 28.2204632,8.27115789 C26.8941474,6.05962105 25.1252211,4.28917895 22.9136842,2.96286316 C20.6672842,1.66989474 18.2177684,1.02416842 15.5984842,1.02416842 C12.9443368,1.02416842 10.4948211,1.66989474 8.24993684,2.96286316 C6.0384,4.28917895 4.26947368,6.05962105 2.94164211,8.27115789 C1.64867368,10.5160421 1.00294737,12.9655579 1.00294737,15.6197053 C1.00294737,18.7831579 1.92151579,21.6419368 3.792,24.1596632" id="Fill-172"></path>
            </g>
        </g>
    </g>
</svg>