<svg width="34" height="28" viewBox="0 0 34 28" xmlns="http://www.w3.org/2000/svg"><title>icon-twitter</title><path d="M10.808 27.708c2.42 0 4.688-.377 6.844-1.134 2.117-.795 3.931-1.815 5.444-3.1a21.794 21.794 0 0 0 3.894-4.424c1.058-1.7 1.89-3.44 2.419-5.255a19.4 19.4 0 0 0 .795-5.483v-.869a15.021 15.021 0 0 0 3.402-3.515c-1.324.529-2.609.906-3.933 1.02 1.476-.87 2.496-2.117 2.988-3.742a13.273 13.273 0 0 1-4.31 1.662C26.99 1.432 25.326.714 23.36.714c-1.854 0-3.48.642-4.803 1.966-1.322 1.36-2.003 2.95-2.003 4.84 0 .49.076 1.02.189 1.549-2.798-.113-5.407-.832-7.864-2.079-2.42-1.285-4.5-2.95-6.2-5.028-.605 1.058-.946 2.192-.946 3.44 0 1.133.304 2.23.832 3.25a7.202 7.202 0 0 0 2.23 2.421c-1.096-.039-2.117-.34-3.099-.87v.077c0 1.662.53 3.099 1.55 4.347 1.058 1.248 2.343 2.003 3.931 2.343a7.435 7.435 0 0 1-1.814.227c-.379 0-.795-.037-1.285-.112.453 1.36 1.246 2.494 2.419 3.365a6.325 6.325 0 0 0 3.97 1.36c-2.495 1.967-5.292 2.912-8.47 2.912-.604 0-1.133 0-1.625-.076 3.138 2.041 6.654 3.062 10.435 3.062" fill="#0A0B09" fill-rule="evenodd"/></svg>