<svg width="23" height="22" viewBox="0 0 23 22" xmlns="http://www.w3.org/2000/svg"><title>incon-linkedin-inverse</title><path d="M1.55 4.972c.447.446 1.068.67 1.812.67h.025c.794 0 1.414-.224 1.885-.67.472-.472.695-1.018.695-1.712 0-.67-.249-1.24-.695-1.687-.447-.446-1.067-.67-1.836-.67-.77 0-1.39.224-1.86.67a2.246 2.246 0 0 0-.72 1.687c0 .694.224 1.24.694 1.712zm-.42 16.25h4.564V7.526H1.13V21.22zm11.634 0V13.58c0-.471.05-.844.15-1.117a3.02 3.02 0 0 1 .893-1.19c.371-.323.867-.472 1.463-.472.794 0 1.364.273 1.736.82.373.545.57 1.314.57 2.281v7.32h4.565v-7.84c0-2.035-.47-3.572-1.437-4.615-.969-1.042-2.234-1.562-3.821-1.562-.57 0-1.117.074-1.589.223-.47.124-.867.323-1.214.594a5.456 5.456 0 0 0-.77.721c-.199.222-.396.47-.571.768h.025V7.527H8.2l.024.67v4.093c0 2.282 0 5.26-.024 8.931h4.564z" fill="#FFF" fill-rule="evenodd"/></svg>