<svg width="151" height="26" viewBox="0 0 151 26" xmlns="http://www.w3.org/2000/svg"><title>logo-strong</title><path d="M15.344 14.453c.333.167.52.406.562.719.042.312-.094.781-.406 1.406a4.62 4.62 0 0 1-.445.742 1.38 1.38 0 0 1-.414.383.695.695 0 0 1-.414.086 1.246 1.246 0 0 1-.446-.148L1.594 11.359a1.239 1.239 0 0 1-.547-.492c-.115-.203-.172-.528-.172-.976 0-.448.057-.774.172-.977.114-.203.297-.367.547-.492L13.78 2.14c.156-.084.305-.133.446-.149a.695.695 0 0 1 .414.086c.135.073.273.2.414.383.14.182.289.43.445.742.313.625.448 1.094.406 1.406-.041.313-.229.552-.562.72L6.204 9.89l9.14 4.562zm9.312 3.906c0 .355-.15.607-.453.758-.302.151-.786.227-1.453.227s-1.14-.076-1.422-.227c-.281-.15-.422-.403-.422-.758v-3.484c0-.354.123-.607.367-.758.245-.15.623-.226 1.133-.226.344 0 .617.036.82.109.204.073.363.182.477.328a4.492 4.492 0 0 0 2.078 1.469 7.964 7.964 0 0 0 2.594.422c.875 0 1.51-.112 1.906-.336.396-.224.594-.544.594-.961 0-.271-.125-.485-.375-.64-.25-.157-.589-.282-1.016-.376a14.543 14.543 0 0 0-1.468-.234 39.597 39.597 0 0 1-1.72-.235 18.634 18.634 0 0 1-1.765-.367 7.17 7.17 0 0 1-1.625-.633 4.448 4.448 0 0 1-1.547-1.406c-.406-.594-.609-1.375-.609-2.344 0-.697.143-1.322.43-1.874a4.163 4.163 0 0 1 1.187-1.407 5.465 5.465 0 0 1 1.797-.883 7.936 7.936 0 0 1 2.242-.304c.844 0 1.607.099 2.29.297a7.51 7.51 0 0 1 1.898.843v-.156c0-.354.125-.607.375-.758.25-.15.708-.226 1.375-.226.666 0 1.14.075 1.422.226.28.151.422.404.422.758V8.5c0 .354-.112.607-.336.758-.224.15-.592.226-1.102.226-.552 0-.932-.109-1.14-.328-.646-.677-1.37-1.148-2.172-1.414-.803-.265-1.698-.398-2.688-.398-.635 0-1.122.112-1.46.336-.34.224-.509.513-.509.867 0 .24.104.435.313.586.208.15.49.268.843.351.386.094.834.167 1.344.22.51.051 1.05.111 1.617.179.568.068 1.141.159 1.72.273a8.878 8.878 0 0 1 1.632.485 5.87 5.87 0 0 1 1.055.57 3.543 3.543 0 0 1 1.398 1.89c.136.412.203.883.203 1.415 0 .74-.135 1.406-.406 2a4.098 4.098 0 0 1-1.203 1.523c-.531.422-1.182.745-1.953.969-.771.224-1.656.336-2.657.336-.812 0-1.546-.102-2.203-.305a8.501 8.501 0 0 1-1.828-.805v.125zm15.219-9.5c-.177 0-.328-.026-.453-.078a.65.65 0 0 1-.305-.265 1.411 1.411 0 0 1-.172-.508 5.03 5.03 0 0 1-.054-.82c0-.334.018-.61.054-.829.037-.218.094-.39.172-.515a.65.65 0 0 1 .305-.266c.125-.052.276-.078.453-.078h3.016V1.094c0-.354.156-.607.468-.758.313-.151.844-.227 1.594-.227.375 0 .68.019.914.055.235.037.422.094.563.172.14.078.237.18.289.305.052.125.078.276.078.453V5.5h5.797c.177 0 .328.026.453.078a.65.65 0 0 1 .305.266c.078.125.135.297.171.515.037.22.055.495.055.829 0 .333-.018.606-.055.82a1.411 1.411 0 0 1-.171.508.65.65 0 0 1-.305.265 1.177 1.177 0 0 1-.453.078h-5.797v4.344c0 .906.174 1.565.523 1.977.35.411.847.617 1.492.617.26 0 .55-.034.868-.102.317-.067.643-.159.976-.273a18.56 18.56 0 0 0 1.032-.39c.354-.147.703-.298 1.046-.454a1.44 1.44 0 0 1 .461-.133.8.8 0 0 1 .438.078c.14.068.276.188.406.36s.258.414.383.726c.25.615.336 1.079.258 1.391-.078.313-.29.552-.633.719-.948.479-1.888.87-2.82 1.172a8.911 8.911 0 0 1-2.758.453c-1.823 0-3.209-.5-4.157-1.5-.947-1-1.421-2.48-1.421-4.438V8.86h-3.016zm21.953-1.093H60c-.177 0-.328-.021-.453-.063a.586.586 0 0 1-.305-.234 1.246 1.246 0 0 1-.172-.485 4.883 4.883 0 0 1-.054-.812c0-.333.018-.604.054-.813.037-.208.094-.372.172-.492.078-.12.18-.2.305-.242.125-.042.276-.063.453-.063h4.281c.354 0 .607.076.758.227.151.151.227.404.227.758v3.39c.791-1.52 1.692-2.687 2.703-3.5 1.01-.812 2.036-1.218 3.078-1.218.885 0 1.719.291 2.5.875.385.291.61.638.672 1.039.062.4-.026.898-.266 1.492-.25.635-.536 1.055-.86 1.258a.922.922 0 0 1-.984.039 3.896 3.896 0 0 0-.906-.367 3.606 3.606 0 0 0-2.633.32 4.731 4.731 0 0 0-1.453 1.219 6.115 6.115 0 0 0-1.008 1.86 7.138 7.138 0 0 0-.375 2.358v1.485h4.485c.177 0 .328.02.453.062a.576.576 0 0 1 .305.243c.078.12.135.283.171.492.037.208.055.479.055.812 0 .334-.018.604-.055.813-.036.208-.093.37-.171.484a.586.586 0 0 1-.305.235 1.442 1.442 0 0 1-.453.062H59.53c-.177 0-.328-.02-.453-.063a.586.586 0 0 1-.305-.234 1.246 1.246 0 0 1-.171-.484 4.883 4.883 0 0 1-.055-.813c0-.333.018-.604.055-.812.036-.209.093-.373.171-.492a.582.582 0 0 1 .305-.243c.125-.041.276-.062.453-.062h2.297V7.766zm23.516 11.578c-1.209 0-2.3-.188-3.274-.563-.974-.375-1.804-.898-2.492-1.57a6.959 6.959 0 0 1-1.594-2.398c-.375-.928-.562-1.938-.562-3.032s.187-2.101.562-3.023a6.976 6.976 0 0 1 1.594-2.39c.688-.673 1.518-1.199 2.492-1.579.974-.38 2.065-.57 3.274-.57 1.208 0 2.3.19 3.273.57.974.38 1.805.906 2.492 1.578a6.976 6.976 0 0 1 1.594 2.39c.375.923.563 1.93.563 3.024s-.188 2.104-.563 3.031a6.959 6.959 0 0 1-1.594 2.399c-.687.672-1.518 1.195-2.492 1.57s-2.065.563-3.273.563zm0-11.578c-.563 0-1.076.093-1.54.28a3.192 3.192 0 0 0-1.179.813 3.73 3.73 0 0 0-.75 1.274 4.864 4.864 0 0 0-.266 1.648c0 .615.089 1.167.266 1.656.177.49.427.912.75 1.266s.716.625 1.18.813c.463.187.976.28 1.539.28.562 0 1.075-.093 1.539-.28a3.192 3.192 0 0 0 1.18-.813c.322-.354.572-.776.75-1.265.177-.49.265-1.042.265-1.657a4.84 4.84 0 0 0-.266-1.648 3.73 3.73 0 0 0-.75-1.274 3.192 3.192 0 0 0-1.18-.812 4.069 4.069 0 0 0-1.538-.281zm12.984 0h-1.516c-.177 0-.328-.021-.453-.063a.586.586 0 0 1-.304-.234 1.246 1.246 0 0 1-.172-.485 4.883 4.883 0 0 1-.055-.812c0-.333.018-.604.055-.813.036-.208.094-.372.172-.492.078-.12.18-.2.304-.242.125-.042.276-.063.454-.063h3.812c.354 0 .607.076.758.227.15.151.226.404.226.758v2.266c.73-1.271 1.526-2.188 2.391-2.75.865-.563 1.786-.844 2.766-.844.718 0 1.37.12 1.953.36a4.127 4.127 0 0 1 1.484 1.015c.406.437.721.971.945 1.601.224.63.336 1.336.336 2.117v6.485h1.204c.177 0 .328.02.453.062a.576.576 0 0 1 .304.243c.078.12.136.283.172.492.037.208.055.479.055.812 0 .334-.018.604-.055.813-.036.208-.094.37-.172.484a.586.586 0 0 1-.304.235 1.442 1.442 0 0 1-.454.062h-5.843c-.177 0-.328-.02-.453-.063a.586.586 0 0 1-.305-.234 1.246 1.246 0 0 1-.172-.484 4.883 4.883 0 0 1-.055-.813c0-.333.019-.604.055-.812.037-.209.094-.373.172-.492a.578.578 0 0 1 .305-.243c.125-.041.276-.062.453-.062h.734v-5.563c0-.77-.133-1.375-.398-1.812-.266-.438-.743-.656-1.43-.656-.469 0-.914.148-1.336.445a4.263 4.263 0 0 0-1.117 1.195c-.323.5-.58 1.084-.774 1.75a7.502 7.502 0 0 0-.289 2.094v2.547h.735c.177 0 .328.02.453.062a.576.576 0 0 1 .305.243c.078.12.135.283.171.492.037.208.055.479.055.812 0 .334-.018.604-.055.813-.036.208-.093.37-.171.484a.586.586 0 0 1-.305.235 1.442 1.442 0 0 1-.453.062h-5.844c-.177 0-.328-.02-.453-.063a.586.586 0 0 1-.305-.234 1.246 1.246 0 0 1-.172-.484 4.883 4.883 0 0 1-.054-.813c0-.333.018-.604.054-.812.037-.209.094-.373.172-.492a.578.578 0 0 1 .305-.243c.125-.041.276-.062.453-.062h1.203V7.766zm32.063 11.296c0 1-.149 1.896-.446 2.688a5.229 5.229 0 0 1-1.343 2.023c-.6.558-1.352.982-2.258 1.274-.906.292-1.974.437-3.203.437-.76 0-1.61-.078-2.547-.234a26.1 26.1 0 0 1-2.969-.688c-.365-.114-.594-.333-.688-.656-.093-.323-.041-.807.157-1.453a3.25 3.25 0 0 1 .312-.75c.115-.187.237-.325.367-.414a.775.775 0 0 1 .415-.14 1.64 1.64 0 0 1 .468.054c.73.208 1.477.383 2.242.524.766.14 1.461.21 2.086.21 1.26 0 2.16-.268 2.696-.804.536-.537.804-1.33.804-2.383v-1.672a5.657 5.657 0 0 1-1.836 1.328 5.464 5.464 0 0 1-2.273.469c-1.031 0-1.96-.185-2.79-.555a6.278 6.278 0 0 1-2.124-1.53 6.71 6.71 0 0 1-1.352-2.321c-.312-.896-.468-1.87-.468-2.922s.156-2.026.468-2.922a6.71 6.71 0 0 1 1.352-2.32 6.278 6.278 0 0 1 2.125-1.532c.828-.37 1.758-.554 2.789-.554 1.01 0 1.917.208 2.719.625a5.539 5.539 0 0 1 2.015 1.797V5.547c0-.354.076-.607.227-.758.151-.151.404-.226.758-.226h3.656c.177 0 .328.02.453.062a.576.576 0 0 1 .305.242c.078.12.135.284.172.492.036.209.054.48.054.813 0 .333-.018.604-.054.812-.037.209-.094.37-.172.485a.586.586 0 0 1-.305.234 1.442 1.442 0 0 1-.453.063h-1.36v11.296zm-3.797-7.515c0-.636-.097-1.19-.29-1.664a3.338 3.338 0 0 0-.78-1.18A3.224 3.224 0 0 0 124.382 8 4.037 4.037 0 0 0 123 7.766c-.958 0-1.727.323-2.305.968-.578.646-.867 1.584-.867 2.813s.29 2.167.867 2.812c.578.646 1.347.97 2.305.97.49 0 .95-.079 1.383-.235.432-.156.812-.39 1.14-.703.329-.313.589-.706.782-1.18.192-.474.289-1.029.289-1.664zm9.562-6.219c-.333-.167-.52-.406-.562-.719-.042-.312.094-.78.406-1.406a4.62 4.62 0 0 1 .445-.742c.14-.182.279-.31.414-.383a.695.695 0 0 1 .414-.086c.141.016.29.065.446.149l12.187 6.28c.25.126.433.29.547.493.115.203.172.529.172.977 0 .448-.057.773-.172.976a1.239 1.239 0 0 1-.547.492l-12.187 6.282a1.246 1.246 0 0 1-.446.148.695.695 0 0 1-.414-.086 1.38 1.38 0 0 1-.414-.383 4.62 4.62 0 0 1-.445-.742c-.313-.625-.448-1.094-.406-1.406.041-.313.229-.552.562-.719l9.14-4.562-9.14-4.563z" fill="#EA508B" fill-rule="evenodd"/></svg>