<svg width="201" height="35" viewBox="0 0 201 35" xmlns="http://www.w3.org/2000/svg"><title>logo</title><path d="M7.978 13.06l13.35 6.336c.752.356 1.278.708 1.58 1.057.3.348.45.769.45 1.26 0 .575-.177 1.04-.533 1.395-.355.356-.827.534-1.415.534-.246 0-.516-.041-.81-.123a7.83 7.83 0 0 1-1.077-.41l-16.16-7.445a4.84 4.84 0 0 0-.39-.164C1.525 14.83.8 14.044.8 13.142c0-.916.759-1.723 2.276-2.42l.164-.103 16.283-7.588c.547-.246.95-.406 1.21-.482.26-.075.486-.112.677-.112.588 0 1.06.177 1.415.533.356.355.533.82.533 1.394 0 .492-.153.92-.461 1.282-.308.362-.83.721-1.569 1.077L7.978 13.06zm24.404 12.653a4.343 4.343 0 0 1-1.097.625 3.223 3.223 0 0 1-1.159.216c-.588 0-1.001-.158-1.24-.472-.24-.314-.36-.902-.36-1.764v-2.727c0-.903.15-1.542.452-1.918.3-.376.82-.564 1.558-.564.807 0 1.463.39 1.969 1.17.3.423.554.738.759.943a6.645 6.645 0 0 0 2.338 1.353c.888.301 1.9.451 3.035.451.984 0 1.77-.191 2.358-.574.588-.383.882-.882.882-1.497 0-1.107-1.58-1.873-4.737-2.297a32.721 32.721 0 0 1-1.641-.225c-2.379-.329-4.15-.974-5.312-1.938s-1.743-2.26-1.743-3.887c0-1.927.698-3.418 2.092-4.47 1.395-1.053 3.384-1.58 5.968-1.58.889 0 1.801.072 2.738.216a20.52 20.52 0 0 1 2.881.666c.287-.341.591-.594.913-.758.32-.164.68-.246 1.076-.246.56 0 .988.174 1.282.522.294.35.441.872.441 1.57v2.522c0 .588-.15 1.042-.451 1.364-.301.32-.725.482-1.272.482-.56 0-1.52-.49-2.881-1.467-1.36-.977-2.724-1.466-4.091-1.466-1.067 0-1.894.174-2.482.523-.588.348-.882.83-.882 1.446 0 .957 1.23 1.6 3.692 1.927.71.082 1.271.15 1.681.205 3.09.452 5.213 1.125 6.368 2.02 1.155.896 1.733 2.226 1.733 3.99 0 2.064-.762 3.66-2.287 4.788-1.524 1.128-3.688 1.692-6.49 1.692-1.094 0-2.147-.072-3.159-.216a21.238 21.238 0 0 1-2.932-.625zM61.585 8.199h6.255c.943 0 1.613.171 2.01.513.396.342.594.91.594 1.702 0 .807-.201 1.388-.605 1.743-.403.356-1.07.533-2 .533h-6.254v5.25c0 1.477.226 2.489.677 3.036.45.546 1.244.82 2.379.82 1.066 0 2.324-.308 3.773-.923 1.45-.615 2.42-.923 2.912-.923.56 0 1.043.222 1.446.667.403.444.605.98.605 1.61 0 1.052-.954 2.013-2.86 2.88-1.908.87-4.072 1.303-6.492 1.303-1.408 0-2.645-.191-3.712-.574-1.066-.383-1.907-.93-2.522-1.64-.451-.548-.772-1.204-.964-1.97-.191-.765-.287-2.043-.287-3.834V12.69h-1.928c-.93 0-1.589-.177-1.979-.533-.39-.355-.584-.936-.584-1.743s.191-1.377.574-1.712c.383-.335 1.046-.503 1.99-.503h1.927V3.4c0-.943.195-1.606.585-1.989.39-.383 1.035-.574 1.938-.574.902 0 1.548.191 1.937.574.39.383.585 1.046.585 1.99v4.798zm25.696 6.665v6.645h4.84c.93 0 1.59.17 1.98.512.389.342.584.91.584 1.703 0 .806-.195 1.387-.585 1.743-.39.355-1.05.533-1.979.533H80.657c-.943 0-1.613-.178-2.01-.533-.396-.356-.594-.937-.594-1.743 0-.793.195-1.36.584-1.703.39-.341 1.063-.512 2.02-.512h1.559v-9.967h-.882c-.93 0-1.59-.174-1.979-.523-.39-.349-.584-.926-.584-1.733s.187-1.38.563-1.723c.376-.341 1.043-.512 2-.512h4.368c.37 0 .656.078.861.236a.77.77 0 0 1 .308.646v3.035c1.49-1.6 2.881-2.741 4.173-3.425a8.79 8.79 0 0 1 4.174-1.025c1.353 0 2.427.304 3.22.912.792.609 1.189 1.425 1.189 2.45 0 .794-.273 1.447-.82 1.96-.547.512-1.251.768-2.113.768-.615 0-1.343-.225-2.184-.676-.84-.452-1.425-.677-1.753-.677-.656 0-1.429.294-2.318.882-.888.588-1.94 1.497-3.158 2.727zm26.127-3.937c-1.6 0-2.915.523-3.948 1.569-1.032 1.046-1.548 2.382-1.548 4.009 0 1.64.516 2.997 1.548 4.07 1.033 1.074 2.349 1.61 3.948 1.61 1.6 0 2.92-.536 3.958-1.61 1.04-1.073 1.559-2.43 1.559-4.07 0-1.627-.516-2.963-1.549-4.01-1.032-1.045-2.355-1.568-3.968-1.568zm0-4.327c3.322 0 6.016.93 8.08 2.789 2.065 1.86 3.097 4.245 3.097 7.157 0 2.926-1.032 5.318-3.097 7.178-2.064 1.859-4.758 2.789-8.08 2.789-3.308 0-5.995-.93-8.06-2.79-2.064-1.859-3.096-4.251-3.096-7.177 0-2.912 1.036-5.298 3.107-7.157 2.071-1.86 4.754-2.79 8.05-2.79zm33.818 14.868h.266c.766 0 1.34.188 1.723.564.383.376.574.94.574 1.692 0 .806-.195 1.387-.584 1.743-.39.355-1.05.533-1.98.533h-5.044c-.916 0-1.576-.178-1.98-.533-.403-.356-.604-.937-.604-1.743 0-.752.195-1.316.584-1.692.39-.376.974-.564 1.754-.564h.246V15.54c0-1.64-.23-2.806-.687-3.497-.458-.69-1.22-1.035-2.287-1.035-1.135 0-2.061.413-2.779 1.24-.718.828-1.076 1.925-1.076 3.292v5.927h.246c.779 0 1.36.188 1.743.564.383.376.574.94.574 1.692 0 .806-.198 1.387-.595 1.743-.396.355-1.052.533-1.968.533h-5.086c-.916 0-1.573-.178-1.97-.533-.396-.356-.594-.937-.594-1.743 0-.752.192-1.316.574-1.692.383-.376.964-.564 1.744-.564h.246v-9.926h-.349c-.738 0-1.299-.188-1.682-.564-.382-.376-.574-.926-.574-1.65 0-.807.198-1.389.595-1.744.396-.355 1.066-.533 2.01-.533h3.486c.383 0 .673.075.872.225.198.15.297.37.297.657v1.6c.629-.985 1.432-1.727 2.41-2.226.977-.499 2.108-.748 3.394-.748 2.187 0 3.817.663 4.89 1.989 1.074 1.326 1.61 3.35 1.61 6.07v6.85zm15.709-10.582c-1.34 0-2.451.485-3.333 1.456-.882.97-1.323 2.208-1.323 3.712 0 1.476.441 2.696 1.323 3.66.882.964 1.993 1.446 3.333 1.446 1.353 0 2.47-.482 3.353-1.446.881-.964 1.322-2.184 1.322-3.66 0-1.504-.44-2.741-1.322-3.712-.882-.97-2-1.456-3.353-1.456zm5.086-1.928V7.892c0-.274.099-.482.297-.626.198-.143.495-.215.892-.215h3.343c.943 0 1.606.174 1.989.523.383.348.574.92.574 1.712 0 .738-.188 1.299-.564 1.682-.376.383-.926.574-1.65.574h-.35v14.13c0 2.994-.813 5.168-2.44 6.521-1.627 1.354-4.238 2.03-7.834 2.03-2.228 0-3.865-.218-4.911-.656-1.046-.437-1.57-1.128-1.57-2.07 0-.657.213-1.19.637-1.6.423-.41.984-.616 1.681-.616.178 0 .766.062 1.764.185s1.92.184 2.768.184c1.956 0 3.306-.369 4.05-1.107.746-.738 1.118-2.064 1.118-3.979v-.922c-.97.56-1.93.974-2.88 1.24-.951.267-1.939.4-2.964.4-2.748 0-4.994-.858-6.737-2.574-1.743-1.715-2.615-3.92-2.615-6.613 0-2.776.913-5.059 2.738-6.85 1.825-1.79 4.16-2.686 7.003-2.686 1.23 0 2.31.194 3.24.584.93.39 1.737.995 2.42 1.815zm25.675 4.102l-13.37-6.337c-.725-.356-1.242-.715-1.55-1.077a1.918 1.918 0 0 1-.46-1.282c0-.574.17-1.039.512-1.394.342-.356.8-.533 1.374-.533.219 0 .468.04.749.123.28.082.68.239 1.2.471l16.242 7.588.164.103c1.517.697 2.276 1.504 2.276 2.42 0 .916-.731 1.702-2.194 2.358a1.798 1.798 0 0 1-.328.164l-16.222 7.444c-.41.192-.762.329-1.056.41a3.061 3.061 0 0 1-.83.124c-.575 0-1.033-.175-1.375-.523-.342-.349-.513-.817-.513-1.405 0-.492.147-.913.441-1.261.294-.349.817-.701 1.57-1.057l13.37-6.336z" fill="#484848" fill-rule="evenodd"/></svg>