<?xml version="1.0" encoding="UTF-8"?>
<svg width="151px" height="26px" viewBox="0 0 151 26" version="1.1" xmlns="http://www.w3.org/2000/svg" xmlns:xlink="http://www.w3.org/1999/xlink">
    <!-- Generator: Sketch 40.3 (33839) - http://www.bohemiancoding.com/sketch -->
    <title>logo-strong</title>
    <desc>Created with Sketch.</desc>
    <defs></defs>
    <g id="Templates" stroke="none" stroke-width="1" fill="none" fill-rule="evenodd">
        <g id="Landing" transform="translate(-1102.000000, -3574.000000)" fill="#EA508B">
            <path d="M1117.34375,3588.45312 C1117.67709,3588.61979 1117.86458,3588.85937 1117.90625,3589.17188 C1117.94792,3589.48438 1117.8125,3589.95312 1117.5,3590.57812 C1117.34375,3590.89063 1117.19531,3591.13802 1117.05469,3591.32031 C1116.91406,3591.50261 1116.77604,3591.63021 1116.64062,3591.70312 C1116.50521,3591.77604 1116.36719,3591.80469 1116.22656,3591.78906 C1116.08594,3591.77344 1115.9375,3591.72396 1115.78125,3591.64062 L1103.59375,3585.35938 C1103.34375,3585.23437 1103.16146,3585.07031 1103.04688,3584.86719 C1102.93229,3584.66406 1102.875,3584.33854 1102.875,3583.89062 C1102.875,3583.44271 1102.93229,3583.11719 1103.04688,3582.91406 C1103.16146,3582.71094 1103.34375,3582.54688 1103.59375,3582.42188 L1115.78125,3576.14062 C1115.9375,3576.05729 1116.08594,3576.00781 1116.22656,3575.99219 C1116.36719,3575.97656 1116.50521,3576.00521 1116.64062,3576.07812 C1116.77604,3576.15104 1116.91406,3576.27864 1117.05469,3576.46094 C1117.19531,3576.64323 1117.34375,3576.89062 1117.5,3577.20312 C1117.8125,3577.82813 1117.94792,3578.29687 1117.90625,3578.60938 C1117.86458,3578.92188 1117.67709,3579.16146 1117.34375,3579.32812 L1108.20312,3583.89062 L1117.34375,3588.45312 Z M1126.65625,3592.35938 C1126.65625,3592.71354 1126.50521,3592.96615 1126.20312,3593.11719 C1125.90104,3593.26823 1125.41667,3593.34375 1124.75,3593.34375 C1124.08333,3593.34375 1123.60938,3593.26823 1123.32812,3593.11719 C1123.04687,3592.96615 1122.90625,3592.71354 1122.90625,3592.35938 L1122.90625,3588.875 C1122.90625,3588.52083 1123.02864,3588.26823 1123.27344,3588.11719 C1123.51823,3587.96615 1123.89583,3587.89062 1124.40625,3587.89062 C1124.75,3587.89062 1125.02344,3587.92708 1125.22656,3588 C1125.42969,3588.07292 1125.58854,3588.18229 1125.70312,3588.32812 C1126.26563,3589.02605 1126.95833,3589.51562 1127.78125,3589.79688 C1128.60417,3590.07813 1129.46875,3590.21875 1130.375,3590.21875 C1131.25,3590.21875 1131.88541,3590.10677 1132.28125,3589.88281 C1132.67709,3589.65885 1132.875,3589.33854 1132.875,3588.92188 C1132.875,3588.65104 1132.75,3588.4375 1132.5,3588.28125 C1132.25,3588.125 1131.91146,3588 1131.48438,3587.90625 C1131.05729,3587.8125 1130.56771,3587.73438 1130.01562,3587.67188 C1129.46354,3587.60937 1128.89063,3587.53125 1128.29688,3587.4375 C1127.70312,3587.34375 1127.11459,3587.22135 1126.53125,3587.07031 C1125.94791,3586.91927 1125.40625,3586.70833 1124.90625,3586.4375 C1124.28125,3586.09375 1123.76563,3585.625 1123.35938,3585.03125 C1122.95312,3584.4375 1122.75,3583.65625 1122.75,3582.6875 C1122.75,3581.98958 1122.89323,3581.36459 1123.17969,3580.8125 C1123.46615,3580.26041 1123.86198,3579.79167 1124.36719,3579.40625 C1124.8724,3579.02083 1125.47135,3578.72656 1126.16406,3578.52344 C1126.85677,3578.32031 1127.60416,3578.21875 1128.40625,3578.21875 C1129.25,3578.21875 1130.01302,3578.31771 1130.69531,3578.51562 C1131.37761,3578.71354 1132.01041,3578.99479 1132.59375,3579.35938 L1132.59375,3579.20312 C1132.59375,3578.84896 1132.71875,3578.59635 1132.96875,3578.44531 C1133.21875,3578.29427 1133.67708,3578.21875 1134.34375,3578.21875 C1135.01042,3578.21875 1135.48437,3578.29427 1135.76562,3578.44531 C1136.04688,3578.59635 1136.1875,3578.84896 1136.1875,3579.20312 L1136.1875,3582.5 C1136.1875,3582.85417 1136.07552,3583.10677 1135.85156,3583.25781 C1135.6276,3583.40885 1135.26042,3583.48438 1134.75,3583.48438 C1134.19791,3583.48438 1133.81771,3583.375 1133.60938,3583.15625 C1132.96354,3582.47916 1132.23959,3582.00781 1131.4375,3581.74219 C1130.63541,3581.47656 1129.73959,3581.34375 1128.75,3581.34375 C1128.11458,3581.34375 1127.62761,3581.45573 1127.28906,3581.67969 C1126.95052,3581.90365 1126.78125,3582.19271 1126.78125,3582.54688 C1126.78125,3582.78646 1126.88542,3582.98177 1127.09375,3583.13281 C1127.30208,3583.28385 1127.58333,3583.40104 1127.9375,3583.48438 C1128.32292,3583.57813 1128.77083,3583.65104 1129.28125,3583.70312 C1129.79167,3583.75521 1130.33073,3583.8151 1130.89844,3583.88281 C1131.46615,3583.95052 1132.03906,3584.04167 1132.61719,3584.15625 C1133.19532,3584.27083 1133.73958,3584.43229 1134.25,3584.64062 C1134.625,3584.79688 1134.97656,3584.98698 1135.30469,3585.21094 C1135.63281,3585.4349 1135.91406,3585.70312 1136.14844,3586.01562 C1136.38281,3586.32813 1136.56771,3586.6901 1136.70312,3587.10156 C1136.83854,3587.51302 1136.90625,3587.98437 1136.90625,3588.51562 C1136.90625,3589.25521 1136.77083,3589.92187 1136.5,3590.51562 C1136.22917,3591.10938 1135.82813,3591.61719 1135.29688,3592.03906 C1134.76562,3592.46094 1134.11459,3592.78385 1133.34375,3593.00781 C1132.57291,3593.23177 1131.68751,3593.34375 1130.6875,3593.34375 C1129.875,3593.34375 1129.14063,3593.24219 1128.48438,3593.03906 C1127.82812,3592.83594 1127.21875,3592.56771 1126.65625,3592.23438 L1126.65625,3592.35938 Z M1141.875,3582.85938 C1141.69792,3582.85938 1141.54688,3582.83333 1141.42188,3582.78125 C1141.29687,3582.72917 1141.19531,3582.64063 1141.11719,3582.51562 C1141.03906,3582.39062 1140.98177,3582.22136 1140.94531,3582.00781 C1140.90885,3581.79427 1140.89062,3581.52083 1140.89062,3581.1875 C1140.89062,3580.85417 1140.90885,3580.57813 1140.94531,3580.35938 C1140.98177,3580.14062 1141.03906,3579.96875 1141.11719,3579.84375 C1141.19531,3579.71875 1141.29687,3579.63021 1141.42188,3579.57812 C1141.54688,3579.52604 1141.69792,3579.5 1141.875,3579.5 L1144.89062,3579.5 L1144.89062,3575.09375 C1144.89062,3574.73958 1145.04687,3574.48698 1145.35938,3574.33594 C1145.67188,3574.1849 1146.20312,3574.10938 1146.95312,3574.10938 C1147.32813,3574.10938 1147.63281,3574.1276 1147.86719,3574.16406 C1148.10156,3574.20052 1148.28906,3574.25781 1148.42969,3574.33594 C1148.57031,3574.41406 1148.66667,3574.51562 1148.71875,3574.64062 C1148.77083,3574.76563 1148.79688,3574.91667 1148.79688,3575.09375 L1148.79688,3579.5 L1154.59375,3579.5 C1154.77083,3579.5 1154.92187,3579.52604 1155.04688,3579.57812 C1155.17188,3579.63021 1155.27344,3579.71875 1155.35156,3579.84375 C1155.42969,3579.96875 1155.48698,3580.14062 1155.52344,3580.35938 C1155.5599,3580.57813 1155.57812,3580.85417 1155.57812,3581.1875 C1155.57812,3581.52083 1155.5599,3581.79427 1155.52344,3582.00781 C1155.48698,3582.22136 1155.42969,3582.39062 1155.35156,3582.51562 C1155.27344,3582.64063 1155.17188,3582.72917 1155.04688,3582.78125 C1154.92187,3582.83333 1154.77083,3582.85938 1154.59375,3582.85938 L1148.79688,3582.85938 L1148.79688,3587.20312 C1148.79688,3588.10938 1148.97135,3588.76823 1149.32031,3589.17969 C1149.66927,3589.59115 1150.16666,3589.79688 1150.8125,3589.79688 C1151.07292,3589.79688 1151.36198,3589.76302 1151.67969,3589.69531 C1151.9974,3589.6276 1152.32291,3589.53646 1152.65625,3589.42188 C1152.98959,3589.30729 1153.33333,3589.17708 1153.6875,3589.03125 C1154.04167,3588.88542 1154.39062,3588.73438 1154.73438,3588.57812 C1154.89063,3588.50521 1155.04427,3588.46094 1155.19531,3588.44531 C1155.34635,3588.42969 1155.49219,3588.45573 1155.63281,3588.52344 C1155.77344,3588.59115 1155.90885,3588.71094 1156.03906,3588.88281 C1156.16927,3589.05469 1156.29687,3589.29687 1156.42188,3589.60938 C1156.67188,3590.22396 1156.75781,3590.6875 1156.67969,3591 C1156.60156,3591.3125 1156.39063,3591.55208 1156.04688,3591.71875 C1155.09895,3592.19792 1154.15886,3592.58854 1153.22656,3592.89062 C1152.29427,3593.19271 1151.375,3593.34375 1150.46875,3593.34375 C1148.64582,3593.34375 1147.26042,3592.84375 1146.3125,3591.84375 C1145.36458,3590.84375 1144.89062,3589.36459 1144.89062,3587.40625 L1144.89062,3582.85938 L1141.875,3582.85938 Z M1163.82812,3581.76562 L1162,3581.76562 C1161.82292,3581.76562 1161.67188,3581.74479 1161.54688,3581.70312 C1161.42187,3581.66146 1161.32031,3581.58333 1161.24219,3581.46875 C1161.16406,3581.35417 1161.10677,3581.19271 1161.07031,3580.98438 C1161.03385,3580.77604 1161.01562,3580.50521 1161.01562,3580.17188 C1161.01562,3579.83854 1161.03385,3579.56771 1161.07031,3579.35938 C1161.10677,3579.15104 1161.16406,3578.98698 1161.24219,3578.86719 C1161.32031,3578.7474 1161.42187,3578.66667 1161.54688,3578.625 C1161.67188,3578.58333 1161.82292,3578.5625 1162,3578.5625 L1166.28125,3578.5625 C1166.63542,3578.5625 1166.88802,3578.63802 1167.03906,3578.78906 C1167.1901,3578.9401 1167.26562,3579.19271 1167.26562,3579.54688 L1167.26562,3582.9375 C1168.0573,3581.41666 1168.95833,3580.25 1169.96875,3579.4375 C1170.97917,3578.625 1172.0052,3578.21875 1173.04688,3578.21875 C1173.9323,3578.21875 1174.76562,3578.51041 1175.54688,3579.09375 C1175.93229,3579.38542 1176.15625,3579.73177 1176.21875,3580.13281 C1176.28125,3580.53386 1176.19271,3581.03125 1175.95312,3581.625 C1175.70312,3582.26042 1175.41667,3582.67969 1175.09375,3582.88281 C1174.77083,3583.08594 1174.44271,3583.09896 1174.10938,3582.92188 C1173.80729,3582.75521 1173.50521,3582.63281 1173.20312,3582.55469 C1172.90104,3582.47656 1172.59896,3582.4375 1172.29688,3582.4375 C1171.69271,3582.4375 1171.11719,3582.58333 1170.57031,3582.875 C1170.02343,3583.16667 1169.53906,3583.57291 1169.11719,3584.09375 C1168.69531,3584.61459 1168.35938,3585.23437 1168.10938,3585.95312 C1167.85937,3586.67188 1167.73438,3587.45833 1167.73438,3588.3125 L1167.73438,3589.79688 L1172.21875,3589.79688 C1172.39583,3589.79688 1172.54687,3589.81771 1172.67188,3589.85938 C1172.79688,3589.90104 1172.89844,3589.98177 1172.97656,3590.10156 C1173.05469,3590.22135 1173.11198,3590.38542 1173.14844,3590.59375 C1173.1849,3590.80208 1173.20312,3591.07292 1173.20312,3591.40625 C1173.20312,3591.73958 1173.1849,3592.01042 1173.14844,3592.21875 C1173.11198,3592.42708 1173.05469,3592.58854 1172.97656,3592.70312 C1172.89844,3592.81771 1172.79688,3592.89583 1172.67188,3592.9375 C1172.54687,3592.97917 1172.39583,3593 1172.21875,3593 L1161.53125,3593 C1161.35417,3593 1161.20313,3592.97917 1161.07812,3592.9375 C1160.95312,3592.89583 1160.85156,3592.81771 1160.77344,3592.70312 C1160.69531,3592.58854 1160.63802,3592.42708 1160.60156,3592.21875 C1160.5651,3592.01042 1160.54688,3591.73958 1160.54688,3591.40625 C1160.54688,3591.07292 1160.5651,3590.80208 1160.60156,3590.59375 C1160.63802,3590.38542 1160.69531,3590.22135 1160.77344,3590.10156 C1160.85156,3589.98177 1160.95312,3589.90104 1161.07812,3589.85938 C1161.20313,3589.81771 1161.35417,3589.79688 1161.53125,3589.79688 L1163.82812,3589.79688 L1163.82812,3581.76562 Z M1187.34375,3593.34375 C1186.13541,3593.34375 1185.04428,3593.15625 1184.07031,3592.78125 C1183.09635,3592.40625 1182.26563,3591.88282 1181.57812,3591.21094 C1180.89062,3590.53906 1180.35938,3589.73959 1179.98438,3588.8125 C1179.60937,3587.88541 1179.42188,3586.87501 1179.42188,3585.78125 C1179.42188,3584.68749 1179.60937,3583.67969 1179.98438,3582.75781 C1180.35938,3581.83593 1180.89062,3581.03907 1181.57812,3580.36719 C1182.26563,3579.69531 1183.09635,3579.16927 1184.07031,3578.78906 C1185.04428,3578.40885 1186.13541,3578.21875 1187.34375,3578.21875 C1188.55209,3578.21875 1189.64322,3578.40885 1190.61719,3578.78906 C1191.59115,3579.16927 1192.42187,3579.69531 1193.10938,3580.36719 C1193.79688,3581.03907 1194.32812,3581.83593 1194.70312,3582.75781 C1195.07813,3583.67969 1195.26562,3584.68749 1195.26562,3585.78125 C1195.26562,3586.87501 1195.07813,3587.88541 1194.70312,3588.8125 C1194.32812,3589.73959 1193.79688,3590.53906 1193.10938,3591.21094 C1192.42187,3591.88282 1191.59115,3592.40625 1190.61719,3592.78125 C1189.64322,3593.15625 1188.55209,3593.34375 1187.34375,3593.34375 L1187.34375,3593.34375 Z M1187.34375,3581.76562 C1186.78125,3581.76562 1186.26823,3581.85937 1185.80469,3582.04688 C1185.34114,3582.23438 1184.94792,3582.50521 1184.625,3582.85938 C1184.30208,3583.21354 1184.05208,3583.63802 1183.875,3584.13281 C1183.69792,3584.62761 1183.60938,3585.17708 1183.60938,3585.78125 C1183.60938,3586.39584 1183.69792,3586.94791 1183.875,3587.4375 C1184.05208,3587.92709 1184.30208,3588.34896 1184.625,3588.70312 C1184.94792,3589.05729 1185.34114,3589.32812 1185.80469,3589.51562 C1186.26823,3589.70313 1186.78125,3589.79688 1187.34375,3589.79688 C1187.90625,3589.79688 1188.41927,3589.70313 1188.88281,3589.51562 C1189.34636,3589.32812 1189.73958,3589.05729 1190.0625,3588.70312 C1190.38542,3588.34896 1190.63542,3587.92709 1190.8125,3587.4375 C1190.98958,3586.94791 1191.07812,3586.39584 1191.07812,3585.78125 C1191.07812,3585.17708 1190.98958,3584.62761 1190.8125,3584.13281 C1190.63542,3583.63802 1190.38542,3583.21354 1190.0625,3582.85938 C1189.73958,3582.50521 1189.34636,3582.23438 1188.88281,3582.04688 C1188.41927,3581.85937 1187.90625,3581.76562 1187.34375,3581.76562 L1187.34375,3581.76562 Z M1200.32812,3581.76562 L1198.8125,3581.76562 C1198.63542,3581.76562 1198.48438,3581.74479 1198.35938,3581.70312 C1198.23437,3581.66146 1198.13281,3581.58333 1198.05469,3581.46875 C1197.97656,3581.35417 1197.91927,3581.19271 1197.88281,3580.98438 C1197.84635,3580.77604 1197.82812,3580.50521 1197.82812,3580.17188 C1197.82812,3579.83854 1197.84635,3579.56771 1197.88281,3579.35938 C1197.91927,3579.15104 1197.97656,3578.98698 1198.05469,3578.86719 C1198.13281,3578.7474 1198.23437,3578.66667 1198.35938,3578.625 C1198.48438,3578.58333 1198.63542,3578.5625 1198.8125,3578.5625 L1202.625,3578.5625 C1202.97917,3578.5625 1203.23177,3578.63802 1203.38281,3578.78906 C1203.53385,3578.9401 1203.60938,3579.19271 1203.60938,3579.54688 L1203.60938,3581.8125 C1204.33855,3580.54166 1205.13541,3579.625 1206,3579.0625 C1206.86459,3578.5 1207.78645,3578.21875 1208.76562,3578.21875 C1209.48438,3578.21875 1210.13541,3578.33854 1210.71875,3578.57812 C1211.30209,3578.81771 1211.79687,3579.15625 1212.20312,3579.59375 C1212.60938,3580.03125 1212.92448,3580.5651 1213.14844,3581.19531 C1213.3724,3581.82552 1213.48438,3582.53125 1213.48438,3583.3125 L1213.48438,3589.79688 L1214.6875,3589.79688 C1214.86458,3589.79688 1215.01562,3589.81771 1215.14062,3589.85938 C1215.26563,3589.90104 1215.36719,3589.98177 1215.44531,3590.10156 C1215.52344,3590.22135 1215.58073,3590.38542 1215.61719,3590.59375 C1215.65365,3590.80208 1215.67188,3591.07292 1215.67188,3591.40625 C1215.67188,3591.73958 1215.65365,3592.01042 1215.61719,3592.21875 C1215.58073,3592.42708 1215.52344,3592.58854 1215.44531,3592.70312 C1215.36719,3592.81771 1215.26563,3592.89583 1215.14062,3592.9375 C1215.01562,3592.97917 1214.86458,3593 1214.6875,3593 L1208.84375,3593 C1208.66667,3593 1208.51563,3592.97917 1208.39062,3592.9375 C1208.26562,3592.89583 1208.16406,3592.81771 1208.08594,3592.70312 C1208.00781,3592.58854 1207.95052,3592.42708 1207.91406,3592.21875 C1207.8776,3592.01042 1207.85938,3591.73958 1207.85938,3591.40625 C1207.85938,3591.07292 1207.8776,3590.80208 1207.91406,3590.59375 C1207.95052,3590.38542 1208.00781,3590.22135 1208.08594,3590.10156 C1208.16406,3589.98177 1208.26562,3589.90104 1208.39062,3589.85938 C1208.51563,3589.81771 1208.66667,3589.79688 1208.84375,3589.79688 L1209.57812,3589.79688 L1209.57812,3584.23438 C1209.57812,3583.46354 1209.44531,3582.85938 1209.17969,3582.42188 C1208.91406,3581.98437 1208.4375,3581.76562 1207.75,3581.76562 C1207.28125,3581.76562 1206.83594,3581.91406 1206.41406,3582.21094 C1205.99219,3582.50781 1205.61979,3582.90625 1205.29688,3583.40625 C1204.97396,3583.90625 1204.71615,3584.48958 1204.52344,3585.15625 C1204.33073,3585.82292 1204.23438,3586.52083 1204.23438,3587.25 L1204.23438,3589.79688 L1204.96875,3589.79688 C1205.14583,3589.79688 1205.29687,3589.81771 1205.42188,3589.85938 C1205.54688,3589.90104 1205.64844,3589.98177 1205.72656,3590.10156 C1205.80469,3590.22135 1205.86198,3590.38542 1205.89844,3590.59375 C1205.9349,3590.80208 1205.95312,3591.07292 1205.95312,3591.40625 C1205.95312,3591.73958 1205.9349,3592.01042 1205.89844,3592.21875 C1205.86198,3592.42708 1205.80469,3592.58854 1205.72656,3592.70312 C1205.64844,3592.81771 1205.54688,3592.89583 1205.42188,3592.9375 C1205.29687,3592.97917 1205.14583,3593 1204.96875,3593 L1199.125,3593 C1198.94792,3593 1198.79688,3592.97917 1198.67188,3592.9375 C1198.54687,3592.89583 1198.44531,3592.81771 1198.36719,3592.70312 C1198.28906,3592.58854 1198.23177,3592.42708 1198.19531,3592.21875 C1198.15885,3592.01042 1198.14062,3591.73958 1198.14062,3591.40625 C1198.14062,3591.07292 1198.15885,3590.80208 1198.19531,3590.59375 C1198.23177,3590.38542 1198.28906,3590.22135 1198.36719,3590.10156 C1198.44531,3589.98177 1198.54687,3589.90104 1198.67188,3589.85938 C1198.79688,3589.81771 1198.94792,3589.79688 1199.125,3589.79688 L1200.32812,3589.79688 L1200.32812,3581.76562 Z M1232.39062,3593.0625 C1232.39062,3594.0625 1232.24219,3594.95833 1231.94531,3595.75 C1231.64844,3596.54167 1231.20052,3597.21614 1230.60156,3597.77344 C1230.0026,3598.33073 1229.25,3598.75521 1228.34375,3599.04688 C1227.4375,3599.33854 1226.3698,3599.48438 1225.14062,3599.48438 C1224.3802,3599.48438 1223.53125,3599.40625 1222.59375,3599.25 C1221.65625,3599.09375 1220.66667,3598.86458 1219.625,3598.5625 C1219.26041,3598.44792 1219.03125,3598.22917 1218.9375,3597.90625 C1218.84375,3597.58333 1218.89583,3597.09896 1219.09375,3596.45312 C1219.1875,3596.14062 1219.29167,3595.89063 1219.40625,3595.70312 C1219.52083,3595.51562 1219.64323,3595.3776 1219.77344,3595.28906 C1219.90365,3595.20052 1220.04167,3595.15365 1220.1875,3595.14844 C1220.33333,3595.14323 1220.48958,3595.16146 1220.65625,3595.20312 C1221.38542,3595.41146 1222.13281,3595.58594 1222.89844,3595.72656 C1223.66407,3595.86719 1224.35937,3595.9375 1224.98438,3595.9375 C1226.2448,3595.9375 1227.14323,3595.66927 1227.67969,3595.13281 C1228.21615,3594.59635 1228.48438,3593.80209 1228.48438,3592.75 L1228.48438,3591.07812 C1227.95312,3591.65104 1227.34115,3592.09375 1226.64844,3592.40625 C1225.95573,3592.71875 1225.19792,3592.875 1224.375,3592.875 C1223.34374,3592.875 1222.41407,3592.69011 1221.58594,3592.32031 C1220.75781,3591.95052 1220.04948,3591.44011 1219.46094,3590.78906 C1218.87239,3590.13802 1218.42188,3589.36459 1218.10938,3588.46875 C1217.79687,3587.57291 1217.64062,3586.59896 1217.64062,3585.54688 C1217.64062,3584.49479 1217.79687,3583.52084 1218.10938,3582.625 C1218.42188,3581.72916 1218.87239,3580.95573 1219.46094,3580.30469 C1220.04948,3579.65364 1220.75781,3579.14323 1221.58594,3578.77344 C1222.41407,3578.40364 1223.34374,3578.21875 1224.375,3578.21875 C1225.38542,3578.21875 1226.29166,3578.42708 1227.09375,3578.84375 C1227.89584,3579.26042 1228.56771,3579.85937 1229.10938,3580.64062 L1229.10938,3579.54688 C1229.10938,3579.19271 1229.1849,3578.9401 1229.33594,3578.78906 C1229.48698,3578.63802 1229.73958,3578.5625 1230.09375,3578.5625 L1233.75,3578.5625 C1233.92708,3578.5625 1234.07812,3578.58333 1234.20312,3578.625 C1234.32813,3578.66667 1234.42969,3578.7474 1234.50781,3578.86719 C1234.58594,3578.98698 1234.64323,3579.15104 1234.67969,3579.35938 C1234.71615,3579.56771 1234.73438,3579.83854 1234.73438,3580.17188 C1234.73438,3580.50521 1234.71615,3580.77604 1234.67969,3580.98438 C1234.64323,3581.19271 1234.58594,3581.35417 1234.50781,3581.46875 C1234.42969,3581.58333 1234.32813,3581.66146 1234.20312,3581.70312 C1234.07812,3581.74479 1233.92708,3581.76562 1233.75,3581.76562 L1232.39062,3581.76562 L1232.39062,3593.0625 Z M1228.59375,3585.54688 C1228.59375,3584.91146 1228.4974,3584.35677 1228.30469,3583.88281 C1228.11198,3583.40885 1227.85156,3583.01563 1227.52344,3582.70312 C1227.19531,3582.39062 1226.81511,3582.15625 1226.38281,3582 C1225.95052,3581.84375 1225.48959,3581.76562 1225,3581.76562 C1224.04166,3581.76562 1223.27344,3582.08854 1222.69531,3582.73438 C1222.11718,3583.38021 1221.82812,3584.3177 1221.82812,3585.54688 C1221.82812,3586.77605 1222.11718,3587.71354 1222.69531,3588.35938 C1223.27344,3589.00521 1224.04166,3589.32812 1225,3589.32812 C1225.48959,3589.32812 1225.95052,3589.25 1226.38281,3589.09375 C1226.81511,3588.9375 1227.19531,3588.70313 1227.52344,3588.39062 C1227.85156,3588.07812 1228.11198,3587.6849 1228.30469,3587.21094 C1228.4974,3586.73698 1228.59375,3586.18229 1228.59375,3585.54688 L1228.59375,3585.54688 Z M1238.15625,3579.32812 C1237.82291,3579.16146 1237.63542,3578.92188 1237.59375,3578.60938 C1237.55208,3578.29687 1237.6875,3577.82813 1238,3577.20312 C1238.15625,3576.89062 1238.30469,3576.64323 1238.44531,3576.46094 C1238.58594,3576.27864 1238.72396,3576.15104 1238.85938,3576.07812 C1238.99479,3576.00521 1239.13281,3575.97656 1239.27344,3575.99219 C1239.41406,3576.00781 1239.5625,3576.05729 1239.71875,3576.14062 L1251.90625,3582.42188 C1252.15625,3582.54688 1252.33854,3582.71094 1252.45312,3582.91406 C1252.56771,3583.11719 1252.625,3583.44271 1252.625,3583.89062 C1252.625,3584.33854 1252.56771,3584.66406 1252.45312,3584.86719 C1252.33854,3585.07031 1252.15625,3585.23437 1251.90625,3585.35938 L1239.71875,3591.64062 C1239.5625,3591.72396 1239.41406,3591.77344 1239.27344,3591.78906 C1239.13281,3591.80469 1238.99479,3591.77604 1238.85938,3591.70312 C1238.72396,3591.63021 1238.58594,3591.50261 1238.44531,3591.32031 C1238.30469,3591.13802 1238.15625,3590.89063 1238,3590.57812 C1237.6875,3589.95312 1237.55208,3589.48438 1237.59375,3589.17188 C1237.63542,3588.85937 1237.82291,3588.61979 1238.15625,3588.45312 L1247.29688,3583.89062 L1238.15625,3579.32812 Z" id="logo-strong"></path>
        </g>
    </g>
</svg>