<?xml version="1.0" encoding="UTF-8" standalone="no"?>
<svg width="201px" height="35px" viewBox="0 0 201 35" version="1.1" xmlns="http://www.w3.org/2000/svg" xmlns:xlink="http://www.w3.org/1999/xlink">
    <!-- Generator: Sketch 3.7 (28169) - http://www.bohemiancoding.com/sketch -->
    <title>logo</title>
    <desc>Created with Sketch.</desc>
    <defs></defs>
    <g id="Templates" stroke="none" stroke-width="1" fill="none" fill-rule="evenodd">
        <g id="Base-320" transform="translate(-49.000000, -322.000000)" fill="#484848">
            <path d="M56.9775391,335.05957 L70.328125,341.396484 C71.0800819,341.751955 71.6064438,342.104002 71.9072266,342.452637 C72.2080093,342.801271 72.3583984,343.221677 72.3583984,343.713867 C72.3583984,344.288089 72.1806658,344.752928 71.8251953,345.108398 C71.4697248,345.463869 70.9980498,345.641602 70.4101562,345.641602 C70.1640613,345.641602 69.8940444,345.600586 69.6000977,345.518555 C69.3061509,345.436523 68.9472677,345.299806 68.5234375,345.108398 L52.3632812,337.664062 C52.2812496,337.623047 52.1513681,337.56836 51.9736328,337.5 C50.5244068,336.830075 49.7998047,336.04395 49.7998047,335.141602 C49.7998047,334.225581 50.5585862,333.418949 52.0761719,332.72168 L52.2402344,332.619141 L68.5234375,325.03125 C69.0703152,324.785155 69.4736315,324.624512 69.7333984,324.549316 C69.9931654,324.474121 70.218749,324.436523 70.4101562,324.436523 C70.9980498,324.436523 71.4697248,324.614256 71.8251953,324.969727 C72.1806658,325.325197 72.3583984,325.790036 72.3583984,326.364258 C72.3583984,326.856448 72.2045914,327.28369 71.8969727,327.645996 C71.5893539,328.008303 71.0664099,328.367186 70.328125,328.722656 L56.9775391,335.05957 Z M81.3818359,347.712891 C81.0263654,347.986329 80.6606464,348.194824 80.284668,348.338379 C79.9086895,348.481934 79.5224629,348.553711 79.1259766,348.553711 C78.538083,348.553711 78.1245129,348.396486 77.8852539,348.082031 C77.6459949,347.767577 77.5263672,347.179692 77.5263672,346.318359 L77.5263672,343.59082 C77.5263672,342.688472 77.6767563,342.049318 77.9775391,341.67334 C78.2783218,341.297361 78.7978479,341.109375 79.5361328,341.109375 C80.3427775,341.109375 80.9990209,341.49902 81.5048828,342.27832 C81.8056656,342.702151 82.0585927,343.016601 82.2636719,343.22168 C82.9335971,343.823245 83.7128862,344.274413 84.6015625,344.575195 C85.4902388,344.875978 86.5019475,345.026367 87.6367188,345.026367 C88.6210987,345.026367 89.4072236,344.834963 89.9951172,344.452148 C90.5830108,344.069334 90.8769531,343.570316 90.8769531,342.955078 C90.8769531,341.847651 89.2978674,341.082033 86.1396484,340.658203 C85.4423793,340.576171 84.8955098,340.500977 84.4990234,340.432617 C82.1201053,340.104491 80.3496152,339.458501 79.1875,338.494629 C78.0253848,337.530757 77.4443359,336.23536 77.4443359,334.608398 C77.4443359,332.680654 78.1415946,331.190435 79.5361328,330.137695 C80.930671,329.084956 82.919909,328.558594 85.5039062,328.558594 C86.3925826,328.558594 87.3051711,328.63037 88.2416992,328.773926 C89.1782273,328.917481 90.138667,329.139647 91.1230469,329.44043 C91.4101577,329.098631 91.7143539,328.845704 92.0356445,328.681641 C92.3569352,328.517577 92.7158183,328.435547 93.1123047,328.435547 C93.6728544,328.435547 94.1000962,328.609862 94.394043,328.958496 C94.6879898,329.307131 94.8349609,329.830075 94.8349609,330.527344 L94.8349609,333.049805 C94.8349609,333.637698 94.6845718,334.092284 94.3837891,334.413574 C94.0830063,334.734865 93.6591824,334.895508 93.1123047,334.895508 C92.551755,334.895508 91.5913154,334.406743 90.230957,333.429199 C88.8705987,332.451655 87.5068428,331.962891 86.1396484,331.962891 C85.0732369,331.962891 84.2460967,332.137205 83.6582031,332.48584 C83.0703096,332.834474 82.7763672,333.316403 82.7763672,333.931641 C82.7763672,334.888677 84.0068236,335.531248 86.4677734,335.859375 C87.1787145,335.941407 87.7392558,336.009765 88.1494141,336.064453 C91.2392733,336.515627 93.3618106,337.18896 94.5170898,338.084473 C95.6723691,338.979985 96.25,340.309561 96.25,342.073242 C96.25,344.137706 95.4878006,345.733881 93.9633789,346.861816 C92.4389572,347.989752 90.2754046,348.553711 87.4726562,348.553711 C86.3789008,348.553711 85.3261769,348.481934 84.3144531,348.338379 C83.3027293,348.194824 82.3252,347.986329 81.3818359,347.712891 L81.3818359,347.712891 Z M110.584961,330.199219 L116.839844,330.199219 C117.783208,330.199219 118.453123,330.370115 118.849609,330.711914 C119.246096,331.053713 119.444336,331.62109 119.444336,332.414062 C119.444336,333.220707 119.242678,333.801756 118.839355,334.157227 C118.436033,334.512697 117.769536,334.69043 116.839844,334.69043 L110.584961,334.69043 L110.584961,339.94043 C110.584961,341.417 110.810545,342.428708 111.261719,342.975586 C111.712893,343.522464 112.505854,343.795898 113.640625,343.795898 C114.707037,343.795898 115.964837,343.488284 117.414062,342.873047 C118.863288,342.257809 119.833982,341.950195 120.326172,341.950195 C120.886722,341.950195 121.36865,342.172361 121.771973,342.616699 C122.175295,343.061037 122.376953,343.597653 122.376953,344.226562 C122.376953,345.279302 121.423349,346.239742 119.516113,347.10791 C117.608877,347.976079 115.445325,348.410156 113.025391,348.410156 C111.61718,348.410156 110.379888,348.218752 109.313477,347.835938 C108.247065,347.453123 107.406253,346.906254 106.791016,346.195312 C106.339841,345.648435 106.018556,344.992191 105.827148,344.226562 C105.635741,343.460934 105.540039,342.182626 105.540039,340.391602 L105.540039,339.94043 L105.540039,334.69043 L103.612305,334.69043 C102.682613,334.69043 102.022951,334.512697 101.633301,334.157227 C101.24365,333.801756 101.048828,333.220707 101.048828,332.414062 C101.048828,331.607418 101.240232,331.036623 101.623047,330.70166 C102.005861,330.366698 102.668941,330.199219 103.612305,330.199219 L105.540039,330.199219 L105.540039,325.400391 C105.540039,324.457027 105.734861,323.793947 106.124512,323.411133 C106.514162,323.028318 107.160152,322.836914 108.0625,322.836914 C108.964848,322.836914 109.610838,323.028318 110.000488,323.411133 C110.390139,323.793947 110.584961,324.457027 110.584961,325.400391 L110.584961,330.199219 Z M136.28125,336.864258 L136.28125,343.508789 L141.121094,343.508789 C142.050786,343.508789 142.710447,343.679686 143.100098,344.021484 C143.489748,344.363283 143.68457,344.93066 143.68457,345.723633 C143.68457,346.530277 143.489748,347.111326 143.100098,347.466797 C142.710447,347.822267 142.050786,348 141.121094,348 L129.657227,348 C128.713862,348 128.043947,347.822267 127.647461,347.466797 C127.250975,347.111326 127.052734,346.530277 127.052734,345.723633 C127.052734,344.93066 127.247557,344.363283 127.637207,344.021484 C128.026857,343.679686 128.700191,343.508789 129.657227,343.508789 L131.21582,343.508789 L131.21582,333.541992 L130.333984,333.541992 C129.404292,333.541992 128.744631,333.367678 128.35498,333.019043 C127.96533,332.670408 127.770508,332.092777 127.770508,331.286133 C127.770508,330.479488 127.958494,329.905275 128.334473,329.563477 C128.710451,329.221678 129.376948,329.050781 130.333984,329.050781 L134.702148,329.050781 C135.071291,329.050781 135.358397,329.129394 135.563477,329.286621 C135.768556,329.443848 135.871094,329.659178 135.871094,329.932617 L135.871094,332.967773 C137.361336,331.368156 138.752435,330.226566 140.044434,329.542969 C141.336432,328.859372 142.727532,328.517578 144.217773,328.517578 C145.571296,328.517578 146.644527,328.821774 147.4375,329.430176 C148.230473,330.038577 148.626953,330.855464 148.626953,331.880859 C148.626953,332.673832 148.353518,333.326658 147.806641,333.839355 C147.259763,334.352053 146.555668,334.608398 145.694336,334.608398 C145.079098,334.608398 144.351078,334.382815 143.510254,333.931641 C142.669429,333.480466 142.084963,333.254883 141.756836,333.254883 C141.100583,333.254883 140.328129,333.548825 139.439453,334.136719 C138.550777,334.724612 137.498053,335.633783 136.28125,336.864258 L136.28125,336.864258 Z M162.408203,332.926758 C160.808586,332.926758 159.492681,333.449702 158.460449,334.495605 C157.428217,335.541509 156.912109,336.877922 156.912109,338.504883 C156.912109,340.145516 157.428217,341.502436 158.460449,342.575684 C159.492681,343.648931 160.808586,344.185547 162.408203,344.185547 C164.00782,344.185547 165.327143,343.648931 166.366211,342.575684 C167.405279,341.502436 167.924805,340.145516 167.924805,338.504883 C167.924805,336.877922 167.408697,335.541509 166.376465,334.495605 C165.344233,333.449702 164.021492,332.926758 162.408203,332.926758 L162.408203,332.926758 Z M162.408203,328.599609 C165.730485,328.599609 168.423818,329.529288 170.488281,331.388672 C172.552745,333.248056 173.584961,335.633775 173.584961,338.545898 C173.584961,341.471694 172.552745,343.864249 170.488281,345.723633 C168.423818,347.583017 165.730485,348.512695 162.408203,348.512695 C159.099593,348.512695 156.413096,347.583017 154.348633,345.723633 C152.284169,343.864249 151.251953,341.471694 151.251953,338.545898 C151.251953,335.633775 152.287587,333.248056 154.358887,331.388672 C156.430186,329.529288 159.113265,328.599609 162.408203,328.599609 L162.408203,328.599609 Z M196.225586,343.467773 L196.492188,343.467773 C197.257816,343.467773 197.832029,343.65576 198.214844,344.031738 C198.597658,344.407717 198.789062,344.971676 198.789062,345.723633 C198.789062,346.530277 198.59424,347.111326 198.20459,347.466797 C197.814939,347.822267 197.155278,348 196.225586,348 L191.180664,348 C190.264644,348 189.604982,347.822267 189.20166,347.466797 C188.798338,347.111326 188.59668,346.530277 188.59668,345.723633 C188.59668,344.971676 188.791502,344.407717 189.181152,344.031738 C189.570803,343.65576 190.15527,343.467773 190.93457,343.467773 L191.180664,343.467773 L191.180664,337.541016 C191.180664,335.900382 190.951662,334.734867 190.493652,334.044434 C190.035642,333.354 189.273443,333.008789 188.207031,333.008789 C187.07226,333.008789 186.146,333.422359 185.428223,334.249512 C184.710446,335.076664 184.351562,336.173821 184.351562,337.541016 L184.351562,343.467773 L184.597656,343.467773 C185.376957,343.467773 185.958006,343.65576 186.34082,344.031738 C186.723635,344.407717 186.915039,344.971676 186.915039,345.723633 C186.915039,346.530277 186.716799,347.111326 186.320312,347.466797 C185.923826,347.822267 185.267583,348 184.351562,348 L179.265625,348 C178.349605,348 177.693361,347.822267 177.296875,347.466797 C176.900389,347.111326 176.702148,346.530277 176.702148,345.723633 C176.702148,344.971676 176.893553,344.407717 177.276367,344.031738 C177.659182,343.65576 178.24023,343.467773 179.019531,343.467773 L179.265625,343.467773 L179.265625,333.541992 L178.916992,333.541992 C178.178707,333.541992 177.618166,333.354006 177.235352,332.978027 C176.852537,332.602049 176.661133,332.051761 176.661133,331.327148 C176.661133,330.520504 176.859373,329.939455 177.255859,329.583984 C177.652346,329.228514 178.322261,329.050781 179.265625,329.050781 L182.751953,329.050781 C183.134768,329.050781 183.425292,329.125976 183.623535,329.276367 C183.821778,329.426759 183.920898,329.645506 183.920898,329.932617 L183.920898,331.532227 C184.549808,330.547847 185.353022,329.806155 186.330566,329.307129 C187.30811,328.808103 188.439447,328.558594 189.724609,328.558594 C191.91212,328.558594 193.542475,329.221673 194.615723,330.547852 C195.68897,331.87403 196.225586,333.897447 196.225586,336.618164 L196.225586,343.467773 Z M211.93457,332.885742 C210.59472,332.885742 209.483891,333.371089 208.602051,334.341797 C207.72021,335.312505 207.279297,336.549797 207.279297,338.053711 C207.279297,339.530281 207.72021,340.750483 208.602051,341.714355 C209.483891,342.678227 210.59472,343.160156 211.93457,343.160156 C213.288093,343.160156 214.405757,342.678227 215.287598,341.714355 C216.169438,340.750483 216.610352,339.530281 216.610352,338.053711 C216.610352,336.549797 216.169438,335.312505 215.287598,334.341797 C214.405757,333.371089 213.288093,332.885742 211.93457,332.885742 L211.93457,332.885742 Z M217.020508,330.958008 L217.020508,329.891602 C217.020508,329.618163 217.119628,329.409669 217.317871,329.266113 C217.516114,329.122558 217.813475,329.050781 218.209961,329.050781 L221.552734,329.050781 C222.496098,329.050781 223.159178,329.225096 223.541992,329.57373 C223.924807,329.922365 224.116211,330.49316 224.116211,331.286133 C224.116211,332.024418 223.928225,332.584959 223.552246,332.967773 C223.176268,333.350588 222.62598,333.541992 221.901367,333.541992 L221.552734,333.541992 L221.552734,347.671875 C221.552734,350.666031 220.739266,352.839837 219.112305,354.193359 C217.485343,355.546882 214.874041,356.223633 211.27832,356.223633 C209.049794,356.223633 207.412603,356.004885 206.366699,355.567383 C205.320796,355.129881 204.797852,354.439458 204.797852,353.496094 C204.797852,352.83984 205.009764,352.306643 205.433594,351.896484 C205.857424,351.486326 206.417965,351.28125 207.115234,351.28125 C207.29297,351.28125 207.880854,351.342773 208.878906,351.46582 C209.876958,351.588868 210.7998,351.650391 211.647461,351.650391 C213.602549,351.650391 214.952633,351.281254 215.697754,350.542969 C216.442875,349.804684 216.81543,348.478525 216.81543,346.564453 L216.81543,345.641602 C215.844722,346.202151 214.884282,346.615721 213.934082,346.882324 C212.983882,347.148927 211.996099,347.282227 210.970703,347.282227 C208.222643,347.282227 205.977059,346.424325 204.233887,344.708496 C202.490714,342.992667 201.619141,340.788099 201.619141,338.094727 C201.619141,335.319322 202.531729,333.036142 204.356934,331.245117 C206.182138,329.454093 208.516587,328.558594 211.360352,328.558594 C212.590826,328.558594 213.670894,328.753416 214.600586,329.143066 C215.530278,329.532717 216.336911,330.137691 217.020508,330.958008 L217.020508,330.958008 Z M242.696289,335.05957 L229.325195,328.722656 C228.600582,328.367186 228.084474,328.008303 227.776855,327.645996 C227.469237,327.28369 227.31543,326.856448 227.31543,326.364258 C227.31543,325.790036 227.486326,325.325197 227.828125,324.969727 C228.169924,324.614256 228.627927,324.436523 229.202148,324.436523 C229.4209,324.436523 229.670409,324.477539 229.950684,324.55957 C230.230958,324.641602 230.630857,324.798827 231.150391,325.03125 L247.392578,332.619141 L247.556641,332.72168 C249.074226,333.418949 249.833008,334.225581 249.833008,335.141602 C249.833008,336.057622 249.10157,336.843747 247.638672,337.5 C247.501952,337.582032 247.392579,337.636719 247.310547,337.664062 L231.088867,345.108398 C230.678709,345.299806 230.326662,345.436523 230.032715,345.518555 C229.738768,345.600586 229.461915,345.641602 229.202148,345.641602 C228.627927,345.641602 228.169924,345.467287 227.828125,345.118652 C227.486326,344.770018 227.31543,344.301761 227.31543,343.713867 C227.31543,343.221677 227.462401,342.801271 227.756348,342.452637 C228.050294,342.104002 228.573238,341.751955 229.325195,341.396484 L242.696289,335.05957 Z" id="logo"></path>
        </g>
    </g>
</svg>