<svg width="201" height="35" viewBox="0 0 201 35" xmlns="http://www.w3.org/2000/svg"><title>logo</title><path d="M7.978 13.06l13.35 6.336c.752.356 1.278.708 1.58 1.057.3.348.45.77.45 1.26 0 .575-.177 1.04-.533 1.395-.355.356-.827.534-1.415.534-.246 0-.516-.04-.81-.123-.294-.083-.653-.22-1.077-.412l-16.16-7.444c-.082-.04-.212-.096-.39-.164C1.524 14.83.8 14.044.8 13.142c0-.916.76-1.723 2.276-2.42l.164-.103 16.283-7.59c.547-.245.95-.405 1.21-.48.26-.076.486-.113.677-.113.588 0 1.06.177 1.415.533.356.355.533.82.533 1.394 0 .492-.153.92-.46 1.282-.31.362-.832.72-1.57 1.077L7.978 13.06zm24.404 12.653c-.356.273-.72.482-1.097.625-.376.144-.763.216-1.16.216-.587 0-1-.158-1.24-.472-.24-.314-.36-.902-.36-1.764V21.59c0-.902.152-1.54.453-1.917.3-.376.82-.564 1.558-.564.807 0 1.463.39 1.97 1.168.3.424.553.74.758.944.67.6 1.45 1.052 2.338 1.353.888.3 1.9.45 3.035.45.984 0 1.77-.19 2.358-.573.588-.383.882-.882.882-1.497 0-1.107-1.58-1.873-4.737-2.297-.698-.082-1.244-.157-1.64-.225-2.38-.33-4.15-.974-5.313-1.938-1.162-.964-1.743-2.26-1.743-3.887 0-1.927.698-3.418 2.092-4.47 1.395-1.053 3.384-1.58 5.968-1.58.89 0 1.8.072 2.738.216.936.143 1.897.366 2.88.666.288-.34.592-.594.914-.758.32-.164.68-.246 1.076-.246.56 0 .988.174 1.282.522.294.35.44.872.44 1.57v2.522c0 .588-.15 1.042-.45 1.364-.3.32-.725.482-1.272.482-.56 0-1.52-.49-2.88-1.467-1.36-.978-2.725-1.467-4.092-1.467-1.067 0-1.894.174-2.482.523-.588.348-.882.83-.882 1.446 0 .957 1.23 1.6 3.692 1.927.71.08 1.27.15 1.68.204 3.09.452 5.214 1.125 6.37 2.02 1.154.896 1.732 2.226 1.732 3.99 0 2.064-.762 3.66-2.287 4.788-1.524 1.128-3.688 1.692-6.49 1.692-1.094 0-2.147-.072-3.16-.216-1.01-.143-1.988-.352-2.93-.625zM61.585 8.2h6.255c.943 0 1.613.17 2.01.512.396.342.594.91.594 1.702 0 .807-.2 1.388-.605 1.743-.404.356-1.07.533-2 .533h-6.255v5.25c0 1.477.226 2.49.677 3.036.45.546 1.244.82 2.38.82 1.065 0 2.323-.308 3.772-.923 1.45-.615 2.42-.923 2.912-.923.56 0 1.043.222 1.446.667.403.444.605.98.605 1.61 0 1.052-.954 2.013-2.86 2.88-1.908.87-4.072 1.303-6.492 1.303-1.408 0-2.645-.19-3.712-.574-1.066-.383-1.907-.93-2.522-1.64-.45-.548-.77-1.204-.963-1.97-.19-.765-.287-2.043-.287-3.834V12.69h-1.928c-.93 0-1.59-.177-1.98-.533-.388-.355-.583-.936-.583-1.743s.19-1.377.573-1.712c.383-.335 1.046-.503 1.99-.503h1.927V3.4c0-.943.195-1.606.585-1.99.39-.382 1.035-.573 1.938-.573.902 0 1.548.19 1.937.574.39.384.585 1.047.585 1.99v4.8zm25.696 6.664v6.645h4.84c.93 0 1.59.17 1.98.51.39.343.585.91.585 1.704 0 .806-.195 1.387-.585 1.743-.39.355-1.05.533-1.98.533H80.658c-.943 0-1.613-.178-2.01-.533-.396-.356-.594-.937-.594-1.743 0-.793.195-1.36.584-1.703.39-.34 1.063-.51 2.02-.51h1.56V11.54h-.883c-.93 0-1.59-.174-1.98-.523-.39-.35-.583-.927-.583-1.734 0-.807.188-1.38.564-1.723.376-.34 1.043-.512 2-.512h4.368c.37 0 .656.08.86.237.207.157.31.372.31.646v3.035c1.49-1.6 2.88-2.74 4.172-3.425 1.292-.684 2.684-1.025 4.174-1.025 1.353 0 2.427.304 3.22.912.792.61 1.19 1.425 1.19 2.45 0 .794-.274 1.447-.82 1.96-.548.512-1.252.768-2.114.768-.615 0-1.343-.225-2.184-.676-.84-.452-1.425-.677-1.753-.677-.656 0-1.43.294-2.318.882-.89.588-1.942 1.497-3.16 2.727zm26.128-3.937c-1.6 0-2.915.523-3.948 1.57-1.032 1.045-1.548 2.38-1.548 4.008 0 1.64.516 2.997 1.548 4.07 1.033 1.074 2.35 1.61 3.948 1.61 1.6 0 2.92-.536 3.958-1.61 1.04-1.073 1.56-2.43 1.56-4.07 0-1.627-.517-2.963-1.55-4.01-1.032-1.045-2.355-1.568-3.968-1.568zm0-4.327c3.322 0 6.016.93 8.08 2.79 2.065 1.858 3.097 4.244 3.097 7.156 0 2.926-1.032 5.318-3.097 7.178-2.064 1.86-4.758 2.79-8.08 2.79-3.308 0-5.995-.93-8.06-2.79-2.064-1.86-3.096-4.252-3.096-7.178 0-2.912 1.036-5.298 3.107-7.157 2.07-1.86 4.753-2.79 8.048-2.79zm33.818 14.868h.266c.766 0 1.34.188 1.723.564.383.376.574.94.574 1.692 0 .806-.196 1.387-.585 1.743-.39.355-1.05.533-1.98.533h-5.044c-.915 0-1.575-.178-1.978-.533-.404-.356-.605-.937-.605-1.743 0-.752.195-1.316.584-1.692.39-.376.975-.564 1.755-.564h.246V15.54c0-1.64-.228-2.805-.686-3.496-.458-.69-1.22-1.035-2.287-1.035-1.135 0-2.06.412-2.78 1.24-.717.827-1.075 1.924-1.075 3.29v5.928h.246c.78 0 1.36.188 1.743.564.384.376.575.94.575 1.692 0 .806-.198 1.387-.595 1.743-.396.355-1.052.533-1.968.533h-5.086c-.916 0-1.573-.178-1.97-.533-.396-.356-.594-.937-.594-1.743 0-.752.192-1.316.574-1.692.383-.376.964-.564 1.744-.564h.246v-9.926h-.35c-.737 0-1.298-.188-1.68-.564-.383-.376-.575-.926-.575-1.65 0-.807.2-1.39.596-1.744.396-.355 1.066-.533 2.01-.533h3.486c.383 0 .673.076.872.226.198.15.297.37.297.657v1.6c.63-.985 1.433-1.727 2.41-2.226.978-.5 2.11-.748 3.395-.748 2.187 0 3.817.662 4.89 1.988 1.074 1.326 1.61 3.35 1.61 6.07v6.85zm15.71-10.582c-1.34 0-2.452.485-3.334 1.456-.882.97-1.323 2.208-1.323 3.712 0 1.476.44 2.696 1.322 3.66.882.964 1.993 1.446 3.333 1.446 1.353 0 2.47-.482 3.353-1.446.88-.964 1.322-2.184 1.322-3.66 0-1.504-.44-2.74-1.322-3.712-.882-.97-2-1.456-3.353-1.456zm5.085-1.928V7.892c0-.274.1-.482.298-.626.198-.143.495-.215.892-.215h3.343c.943 0 1.606.175 1.99.524.382.348.573.92.573 1.712 0 .738-.188 1.3-.564 1.682-.376.383-.926.574-1.65.574h-.35v14.13c0 2.994-.813 5.168-2.44 6.52-1.627 1.355-4.238 2.032-7.834 2.032-2.228 0-3.865-.22-4.91-.657-1.047-.437-1.57-1.128-1.57-2.07 0-.657.212-1.19.636-1.6.423-.41.984-.616 1.68-.616.18 0 .767.063 1.765.186.997.123 1.92.184 2.767.184 1.956 0 3.306-.37 4.05-1.107.746-.738 1.118-2.064 1.118-3.98v-.92c-.97.56-1.93.973-2.88 1.24-.95.266-1.94.4-2.964.4-2.747 0-4.993-.86-6.736-2.575-1.743-1.715-2.615-3.92-2.615-6.613 0-2.776.912-5.06 2.737-6.85 1.825-1.79 4.16-2.686 7.003-2.686 1.23 0 2.31.193 3.24.583.93.39 1.737.995 2.42 1.815zm25.676 4.102l-13.37-6.337c-.725-.356-1.242-.715-1.55-1.077-.307-.362-.46-.79-.46-1.282 0-.574.17-1.04.512-1.394.342-.356.8-.533 1.374-.533.22 0 .468.04.75.123.28.082.68.24 1.198.47l16.243 7.59.164.102c1.517.697 2.276 1.504 2.276 2.42 0 .916-.73 1.702-2.194 2.358-.138.082-.247.137-.33.164l-16.22 7.444c-.41.192-.763.33-1.057.41-.294.083-.57.124-.83.124-.575 0-1.033-.175-1.375-.523-.342-.35-.513-.818-.513-1.406 0-.492.147-.913.44-1.26.295-.35.818-.702 1.57-1.058l13.37-6.336z" fill="#484848" fill-rule="evenodd"/></svg>